<?xml version="1.0" encoding="utf-8" standalone="no"?>
<!DOCTYPE svg PUBLIC "-//W3C//DTD SVG 1.1//EN"
  "http://www.w3.org/Graphics/SVG/1.1/DTD/svg11.dtd">
<svg xmlns:xlink="http://www.w3.org/1999/xlink" width="687.720114pt" height="231.126973pt" viewBox="0 0 687.720114 231.126973" xmlns="http://www.w3.org/2000/svg" version="1.1">
 <metadata>
  <rdf:RDF xmlns:dc="http://purl.org/dc/elements/1.1/" xmlns:cc="http://creativecommons.org/ns#" xmlns:rdf="http://www.w3.org/1999/02/22-rdf-syntax-ns#">
   <cc:Work>
    <dc:type rdf:resource="http://purl.org/dc/dcmitype/StillImage"/>
    <dc:date>2026-05-23T23:30:57.010122</dc:date>
    <dc:format>image/svg+xml</dc:format>
    <dc:creator>
     <cc:Agent>
      <dc:title>Matplotlib v3.10.8, https://matplotlib.org/</dc:title>
     </cc:Agent>
    </dc:creator>
   </cc:Work>
  </rdf:RDF>
 </metadata>
 <defs>
  <style type="text/css">*{stroke-linejoin: round; stroke-linecap: butt}</style>
 </defs>
 <g id="figure_1">
  <g id="patch_1">
   <path d="M 0 231.126973 
L 687.720114 231.126973 
L 687.720114 0 
L 0 0 
z
" style="fill: #ffffff"/>
  </g>
  <g id="axes_1">
   <g id="patch_2">
    <path d="M 7.2 223.926973 
L 565.2 223.926973 
L 565.2 22.318125 
L 7.2 22.318125 
z
" style="fill: #ffffff"/>
   </g>
   <g id="line2d_1">
    <path d="M 464.640202 81.617844 
L 495.348586 104.932606 
" clip-path="url(#p33cc9ae202)" style="fill: none; stroke: #90a4ae; stroke-opacity: 0.5; stroke-width: 0.6; stroke-linecap: square"/>
   </g>
   <g id="line2d_2">
    <path d="M 464.640202 81.617844 
L 463.413968 31.482164 
" clip-path="url(#p33cc9ae202)" style="fill: none; stroke: #90a4ae; stroke-opacity: 0.5; stroke-width: 0.6; stroke-linecap: square"/>
   </g>
   <g id="line2d_3">
    <path d="M 464.640202 81.617844 
L 491.827398 78.623002 
" clip-path="url(#p33cc9ae202)" style="fill: none; stroke: #90a4ae; stroke-opacity: 0.5; stroke-width: 0.6; stroke-linecap: square"/>
   </g>
   <g id="line2d_4">
    <path d="M 491.827398 78.623002 
L 495.348586 104.932606 
" clip-path="url(#p33cc9ae202)" style="fill: none; stroke: #90a4ae; stroke-opacity: 0.5; stroke-width: 0.6; stroke-linecap: square"/>
   </g>
   <g id="line2d_5">
    <path d="M 491.827398 78.623002 
L 463.413968 31.482164 
" clip-path="url(#p33cc9ae202)" style="fill: none; stroke: #90a4ae; stroke-opacity: 0.5; stroke-width: 0.6; stroke-linecap: square"/>
   </g>
   <g id="line2d_6">
    <path d="M 438.484096 84.20025 
L 463.413968 31.482164 
" clip-path="url(#p33cc9ae202)" style="fill: none; stroke: #90a4ae; stroke-opacity: 0.5; stroke-width: 0.6; stroke-linecap: square"/>
   </g>
   <g id="line2d_7">
    <path d="M 438.484096 84.20025 
L 491.827398 78.623002 
" clip-path="url(#p33cc9ae202)" style="fill: none; stroke: #90a4ae; stroke-opacity: 0.5; stroke-width: 0.6; stroke-linecap: square"/>
   </g>
   <g id="line2d_8">
    <path d="M 438.484096 84.20025 
L 464.640202 81.617844 
" clip-path="url(#p33cc9ae202)" style="fill: none; stroke: #90a4ae; stroke-opacity: 0.5; stroke-width: 0.6; stroke-linecap: square"/>
   </g>
   <g id="line2d_9">
    <path d="M 463.413968 31.482164 
L 495.348586 104.932606 
" clip-path="url(#p33cc9ae202)" style="fill: none; stroke: #90a4ae; stroke-opacity: 0.5; stroke-width: 0.6; stroke-linecap: square"/>
   </g>
   <g id="line2d_10">
    <path d="M 539.836364 214.762934 
L 439.930764 214.731391 
" clip-path="url(#p33cc9ae202)" style="fill: none; stroke: #90a4ae; stroke-opacity: 0.5; stroke-width: 0.6; stroke-linecap: square"/>
   </g>
   <g id="line2d_11">
    <path d="M 539.836364 214.762934 
L 486.664128 214.762934 
" clip-path="url(#p33cc9ae202)" style="fill: none; stroke: #90a4ae; stroke-opacity: 0.5; stroke-width: 0.6; stroke-linecap: square"/>
   </g>
   <g id="line2d_12">
    <path d="M 539.836364 214.762934 
L 498.209278 214.762934 
" clip-path="url(#p33cc9ae202)" style="fill: none; stroke: #90a4ae; stroke-opacity: 0.5; stroke-width: 0.6; stroke-linecap: square"/>
   </g>
   <g id="line2d_13">
    <path d="M 498.209278 214.762934 
L 439.930764 214.731391 
" clip-path="url(#p33cc9ae202)" style="fill: none; stroke: #90a4ae; stroke-opacity: 0.5; stroke-width: 0.6; stroke-linecap: square"/>
   </g>
   <g id="line2d_14">
    <path d="M 498.209278 214.762934 
L 486.664128 214.762934 
" clip-path="url(#p33cc9ae202)" style="fill: none; stroke: #90a4ae; stroke-opacity: 0.5; stroke-width: 0.6; stroke-linecap: square"/>
   </g>
   <g id="line2d_15">
    <path d="M 486.664128 214.762934 
L 439.930764 214.731391 
" clip-path="url(#p33cc9ae202)" style="fill: none; stroke: #90a4ae; stroke-opacity: 0.5; stroke-width: 0.6; stroke-linecap: square"/>
   </g>
   <g id="line2d_16">
    <path d="M 439.930764 214.731391 
L 434.532099 200.839657 
" clip-path="url(#p33cc9ae202)" style="fill: none; stroke: #90a4ae; stroke-opacity: 0.5; stroke-width: 0.6; stroke-linecap: square"/>
   </g>
   <g id="line2d_17">
    <path d="M 511.39086 214.762934 
L 434.532099 200.839657 
" clip-path="url(#p33cc9ae202)" style="fill: none; stroke: #90a4ae; stroke-opacity: 0.5; stroke-width: 0.6; stroke-linecap: square"/>
   </g>
   <g id="line2d_18">
    <path d="M 530.348888 47.9227 
L 495.348586 104.932606 
" clip-path="url(#p33cc9ae202)" style="fill: none; stroke: #90a4ae; stroke-opacity: 0.5; stroke-width: 0.6; stroke-linecap: square"/>
   </g>
   <g id="matplotlib.axis_1"/>
   <g id="matplotlib.axis_2"/>
   <g id="patch_3">
    <path d="M 7.2 223.926973 
L 7.2 22.318125 
" style="fill: none; stroke: #000000; stroke-width: 0.8; stroke-linejoin: miter; stroke-linecap: square"/>
   </g>
   <g id="patch_4">
    <path d="M 565.2 223.926973 
L 565.2 22.318125 
" style="fill: none; stroke: #000000; stroke-width: 0.8; stroke-linejoin: miter; stroke-linecap: square"/>
   </g>
   <g id="patch_5">
    <path d="M 7.2 223.926973 
L 565.2 223.926973 
" style="fill: none; stroke: #000000; stroke-width: 0.8; stroke-linejoin: miter; stroke-linecap: square"/>
   </g>
   <g id="patch_6">
    <path d="M 7.2 22.318125 
L 565.2 22.318125 
" style="fill: none; stroke: #000000; stroke-width: 0.8; stroke-linejoin: miter; stroke-linecap: square"/>
   </g>
   <g id="PathCollection_1">
    <defs>
     <path id="C0_0_b99d806c04" d="M 0 3.872983 
C 1.027127 3.872983 2.012324 3.464901 2.738613 2.738613 
C 3.464901 2.012324 3.872983 1.027127 3.872983 -0 
C 3.872983 -1.027127 3.464901 -2.012324 2.738613 -2.738613 
C 2.012324 -3.464901 1.027127 -3.872983 0 -3.872983 
C -1.027127 -3.872983 -2.012324 -3.464901 -2.738613 -2.738613 
C -3.464901 -2.012324 -3.872983 -1.027127 -3.872983 0 
C -3.872983 1.027127 -3.464901 2.012324 -2.738613 2.738613 
C -2.012324 3.464901 -1.027127 3.872983 0 3.872983 
z
"/>
    </defs>
    <g clip-path="url(#p33cc9ae202)">
     <use xlink:href="#C0_0_b99d806c04" x="495.348586" y="104.932606" style="fill: #2e7d32; stroke: #222222; stroke-width: 0.5"/>
    </g>
    <g clip-path="url(#p33cc9ae202)">
     <use xlink:href="#C0_0_b99d806c04" x="32.563636" y="214.762934" style="fill: #2e7d32; stroke: #222222; stroke-width: 0.5"/>
    </g>
    <g clip-path="url(#p33cc9ae202)">
     <use xlink:href="#C0_0_b99d806c04" x="368.224423" y="199.501398" style="fill: #00897b; stroke: #222222; stroke-width: 0.5"/>
    </g>
    <g clip-path="url(#p33cc9ae202)">
     <use xlink:href="#C0_0_b99d806c04" x="390.155408" y="167.199454" style="fill: #5e35b1; stroke: #222222; stroke-width: 0.5"/>
    </g>
    <g clip-path="url(#p33cc9ae202)">
     <use xlink:href="#C0_0_b99d806c04" x="380.72855" y="214.762934" style="fill: #757575; stroke: #222222; stroke-width: 0.5"/>
    </g>
    <g clip-path="url(#p33cc9ae202)">
     <use xlink:href="#C0_0_b99d806c04" x="434.532099" y="200.839657" style="fill: #2e7d32; stroke: #222222; stroke-width: 0.5"/>
    </g>
    <g clip-path="url(#p33cc9ae202)">
     <use xlink:href="#C0_0_b99d806c04" x="464.640202" y="81.617844" style="fill: #388e3c; stroke: #222222; stroke-width: 0.5"/>
    </g>
    <g clip-path="url(#p33cc9ae202)">
     <use xlink:href="#C0_0_b99d806c04" x="491.827398" y="78.623002" style="fill: #388e3c; stroke: #222222; stroke-width: 0.5"/>
    </g>
    <g clip-path="url(#p33cc9ae202)">
     <use xlink:href="#C0_0_b99d806c04" x="438.484096" y="84.20025" style="fill: #388e3c; stroke: #222222; stroke-width: 0.5"/>
    </g>
    <g clip-path="url(#p33cc9ae202)">
     <use xlink:href="#C0_0_b99d806c04" x="463.413968" y="31.482164" style="fill: #388e3c; stroke: #222222; stroke-width: 0.5"/>
    </g>
    <g clip-path="url(#p33cc9ae202)">
     <use xlink:href="#C0_0_b99d806c04" x="539.836364" y="214.762934" style="fill: #2e7d32; stroke: #222222; stroke-width: 0.5"/>
    </g>
    <g clip-path="url(#p33cc9ae202)">
     <use xlink:href="#C0_0_b99d806c04" x="498.209278" y="214.762934" style="fill: #66bb6a; stroke: #222222; stroke-width: 0.5"/>
    </g>
    <g clip-path="url(#p33cc9ae202)">
     <use xlink:href="#C0_0_b99d806c04" x="486.664128" y="214.762934" style="fill: #66bb6a; stroke: #222222; stroke-width: 0.5"/>
    </g>
    <g clip-path="url(#p33cc9ae202)">
     <use xlink:href="#C0_0_b99d806c04" x="439.930764" y="214.731391" style="fill: #66bb6a; stroke: #222222; stroke-width: 0.5"/>
    </g>
    <g clip-path="url(#p33cc9ae202)">
     <use xlink:href="#C0_0_b99d806c04" x="511.39086" y="214.762934" style="fill: #ffb74d; stroke: #222222; stroke-width: 0.5"/>
    </g>
    <g clip-path="url(#p33cc9ae202)">
     <use xlink:href="#C0_0_b99d806c04" x="530.348888" y="47.9227" style="fill: #388e3c; stroke: #222222; stroke-width: 0.5"/>
    </g>
   </g>
   <g id="text_1">
    <!-- Sector: physics/EM-alpha (16 LEDGER rows) -->
    <g transform="translate(154.484062 16.318125) scale(0.12 -0.12)">
     <defs>
      <path id="DejaVuSans-53" d="M 3425 4513 
L 3425 3897 
Q 3066 4069 2747 4153 
Q 2428 4238 2131 4238 
Q 1616 4238 1336 4038 
Q 1056 3838 1056 3469 
Q 1056 3159 1242 3001 
Q 1428 2844 1947 2747 
L 2328 2669 
Q 3034 2534 3370 2195 
Q 3706 1856 3706 1288 
Q 3706 609 3251 259 
Q 2797 -91 1919 -91 
Q 1588 -91 1214 -16 
Q 841 59 441 206 
L 441 856 
Q 825 641 1194 531 
Q 1563 422 1919 422 
Q 2459 422 2753 634 
Q 3047 847 3047 1241 
Q 3047 1584 2836 1778 
Q 2625 1972 2144 2069 
L 1759 2144 
Q 1053 2284 737 2584 
Q 422 2884 422 3419 
Q 422 4038 858 4394 
Q 1294 4750 2059 4750 
Q 2388 4750 2728 4690 
Q 3069 4631 3425 4513 
z
" transform="scale(0.015625)"/>
      <path id="DejaVuSans-65" d="M 3597 1894 
L 3597 1613 
L 953 1613 
Q 991 1019 1311 708 
Q 1631 397 2203 397 
Q 2534 397 2845 478 
Q 3156 559 3463 722 
L 3463 178 
Q 3153 47 2828 -22 
Q 2503 -91 2169 -91 
Q 1331 -91 842 396 
Q 353 884 353 1716 
Q 353 2575 817 3079 
Q 1281 3584 2069 3584 
Q 2775 3584 3186 3129 
Q 3597 2675 3597 1894 
z
M 3022 2063 
Q 3016 2534 2758 2815 
Q 2500 3097 2075 3097 
Q 1594 3097 1305 2825 
Q 1016 2553 972 2059 
L 3022 2063 
z
" transform="scale(0.015625)"/>
      <path id="DejaVuSans-63" d="M 3122 3366 
L 3122 2828 
Q 2878 2963 2633 3030 
Q 2388 3097 2138 3097 
Q 1578 3097 1268 2742 
Q 959 2388 959 1747 
Q 959 1106 1268 751 
Q 1578 397 2138 397 
Q 2388 397 2633 464 
Q 2878 531 3122 666 
L 3122 134 
Q 2881 22 2623 -34 
Q 2366 -91 2075 -91 
Q 1284 -91 818 406 
Q 353 903 353 1747 
Q 353 2603 823 3093 
Q 1294 3584 2113 3584 
Q 2378 3584 2631 3529 
Q 2884 3475 3122 3366 
z
" transform="scale(0.015625)"/>
      <path id="DejaVuSans-74" d="M 1172 4494 
L 1172 3500 
L 2356 3500 
L 2356 3053 
L 1172 3053 
L 1172 1153 
Q 1172 725 1289 603 
Q 1406 481 1766 481 
L 2356 481 
L 2356 0 
L 1766 0 
Q 1100 0 847 248 
Q 594 497 594 1153 
L 594 3053 
L 172 3053 
L 172 3500 
L 594 3500 
L 594 4494 
L 1172 4494 
z
" transform="scale(0.015625)"/>
      <path id="DejaVuSans-6f" d="M 1959 3097 
Q 1497 3097 1228 2736 
Q 959 2375 959 1747 
Q 959 1119 1226 758 
Q 1494 397 1959 397 
Q 2419 397 2687 759 
Q 2956 1122 2956 1747 
Q 2956 2369 2687 2733 
Q 2419 3097 1959 3097 
z
M 1959 3584 
Q 2709 3584 3137 3096 
Q 3566 2609 3566 1747 
Q 3566 888 3137 398 
Q 2709 -91 1959 -91 
Q 1206 -91 779 398 
Q 353 888 353 1747 
Q 353 2609 779 3096 
Q 1206 3584 1959 3584 
z
" transform="scale(0.015625)"/>
      <path id="DejaVuSans-72" d="M 2631 2963 
Q 2534 3019 2420 3045 
Q 2306 3072 2169 3072 
Q 1681 3072 1420 2755 
Q 1159 2438 1159 1844 
L 1159 0 
L 581 0 
L 581 3500 
L 1159 3500 
L 1159 2956 
Q 1341 3275 1631 3429 
Q 1922 3584 2338 3584 
Q 2397 3584 2469 3576 
Q 2541 3569 2628 3553 
L 2631 2963 
z
" transform="scale(0.015625)"/>
      <path id="DejaVuSans-3a" d="M 750 794 
L 1409 794 
L 1409 0 
L 750 0 
L 750 794 
z
M 750 3309 
L 1409 3309 
L 1409 2516 
L 750 2516 
L 750 3309 
z
" transform="scale(0.015625)"/>
      <path id="DejaVuSans-20" transform="scale(0.015625)"/>
      <path id="DejaVuSans-70" d="M 1159 525 
L 1159 -1331 
L 581 -1331 
L 581 3500 
L 1159 3500 
L 1159 2969 
Q 1341 3281 1617 3432 
Q 1894 3584 2278 3584 
Q 2916 3584 3314 3078 
Q 3713 2572 3713 1747 
Q 3713 922 3314 415 
Q 2916 -91 2278 -91 
Q 1894 -91 1617 61 
Q 1341 213 1159 525 
z
M 3116 1747 
Q 3116 2381 2855 2742 
Q 2594 3103 2138 3103 
Q 1681 3103 1420 2742 
Q 1159 2381 1159 1747 
Q 1159 1113 1420 752 
Q 1681 391 2138 391 
Q 2594 391 2855 752 
Q 3116 1113 3116 1747 
z
" transform="scale(0.015625)"/>
      <path id="DejaVuSans-68" d="M 3513 2113 
L 3513 0 
L 2938 0 
L 2938 2094 
Q 2938 2591 2744 2837 
Q 2550 3084 2163 3084 
Q 1697 3084 1428 2787 
Q 1159 2491 1159 1978 
L 1159 0 
L 581 0 
L 581 4863 
L 1159 4863 
L 1159 2956 
Q 1366 3272 1645 3428 
Q 1925 3584 2291 3584 
Q 2894 3584 3203 3211 
Q 3513 2838 3513 2113 
z
" transform="scale(0.015625)"/>
      <path id="DejaVuSans-79" d="M 2059 -325 
Q 1816 -950 1584 -1140 
Q 1353 -1331 966 -1331 
L 506 -1331 
L 506 -850 
L 844 -850 
Q 1081 -850 1212 -737 
Q 1344 -625 1503 -206 
L 1606 56 
L 191 3500 
L 800 3500 
L 1894 763 
L 2988 3500 
L 3597 3500 
L 2059 -325 
z
" transform="scale(0.015625)"/>
      <path id="DejaVuSans-73" d="M 2834 3397 
L 2834 2853 
Q 2591 2978 2328 3040 
Q 2066 3103 1784 3103 
Q 1356 3103 1142 2972 
Q 928 2841 928 2578 
Q 928 2378 1081 2264 
Q 1234 2150 1697 2047 
L 1894 2003 
Q 2506 1872 2764 1633 
Q 3022 1394 3022 966 
Q 3022 478 2636 193 
Q 2250 -91 1575 -91 
Q 1294 -91 989 -36 
Q 684 19 347 128 
L 347 722 
Q 666 556 975 473 
Q 1284 391 1588 391 
Q 1994 391 2212 530 
Q 2431 669 2431 922 
Q 2431 1156 2273 1281 
Q 2116 1406 1581 1522 
L 1381 1569 
Q 847 1681 609 1914 
Q 372 2147 372 2553 
Q 372 3047 722 3315 
Q 1072 3584 1716 3584 
Q 2034 3584 2315 3537 
Q 2597 3491 2834 3397 
z
" transform="scale(0.015625)"/>
      <path id="DejaVuSans-69" d="M 603 3500 
L 1178 3500 
L 1178 0 
L 603 0 
L 603 3500 
z
M 603 4863 
L 1178 4863 
L 1178 4134 
L 603 4134 
L 603 4863 
z
" transform="scale(0.015625)"/>
      <path id="DejaVuSans-2f" d="M 1625 4666 
L 2156 4666 
L 531 -594 
L 0 -594 
L 1625 4666 
z
" transform="scale(0.015625)"/>
      <path id="DejaVuSans-45" d="M 628 4666 
L 3578 4666 
L 3578 4134 
L 1259 4134 
L 1259 2753 
L 3481 2753 
L 3481 2222 
L 1259 2222 
L 1259 531 
L 3634 531 
L 3634 0 
L 628 0 
L 628 4666 
z
" transform="scale(0.015625)"/>
      <path id="DejaVuSans-4d" d="M 628 4666 
L 1569 4666 
L 2759 1491 
L 3956 4666 
L 4897 4666 
L 4897 0 
L 4281 0 
L 4281 4097 
L 3078 897 
L 2444 897 
L 1241 4097 
L 1241 0 
L 628 0 
L 628 4666 
z
" transform="scale(0.015625)"/>
      <path id="DejaVuSans-2d" d="M 313 2009 
L 1997 2009 
L 1997 1497 
L 313 1497 
L 313 2009 
z
" transform="scale(0.015625)"/>
      <path id="DejaVuSans-61" d="M 2194 1759 
Q 1497 1759 1228 1600 
Q 959 1441 959 1056 
Q 959 750 1161 570 
Q 1363 391 1709 391 
Q 2188 391 2477 730 
Q 2766 1069 2766 1631 
L 2766 1759 
L 2194 1759 
z
M 3341 1997 
L 3341 0 
L 2766 0 
L 2766 531 
Q 2569 213 2275 61 
Q 1981 -91 1556 -91 
Q 1019 -91 701 211 
Q 384 513 384 1019 
Q 384 1609 779 1909 
Q 1175 2209 1959 2209 
L 2766 2209 
L 2766 2266 
Q 2766 2663 2505 2880 
Q 2244 3097 1772 3097 
Q 1472 3097 1187 3025 
Q 903 2953 641 2809 
L 641 3341 
Q 956 3463 1253 3523 
Q 1550 3584 1831 3584 
Q 2591 3584 2966 3190 
Q 3341 2797 3341 1997 
z
" transform="scale(0.015625)"/>
      <path id="DejaVuSans-6c" d="M 603 4863 
L 1178 4863 
L 1178 0 
L 603 0 
L 603 4863 
z
" transform="scale(0.015625)"/>
      <path id="DejaVuSans-28" d="M 1984 4856 
Q 1566 4138 1362 3434 
Q 1159 2731 1159 2009 
Q 1159 1288 1364 580 
Q 1569 -128 1984 -844 
L 1484 -844 
Q 1016 -109 783 600 
Q 550 1309 550 2009 
Q 550 2706 781 3412 
Q 1013 4119 1484 4856 
L 1984 4856 
z
" transform="scale(0.015625)"/>
      <path id="DejaVuSans-31" d="M 794 531 
L 1825 531 
L 1825 4091 
L 703 3866 
L 703 4441 
L 1819 4666 
L 2450 4666 
L 2450 531 
L 3481 531 
L 3481 0 
L 794 0 
L 794 531 
z
" transform="scale(0.015625)"/>
      <path id="DejaVuSans-36" d="M 2113 2584 
Q 1688 2584 1439 2293 
Q 1191 2003 1191 1497 
Q 1191 994 1439 701 
Q 1688 409 2113 409 
Q 2538 409 2786 701 
Q 3034 994 3034 1497 
Q 3034 2003 2786 2293 
Q 2538 2584 2113 2584 
z
M 3366 4563 
L 3366 3988 
Q 3128 4100 2886 4159 
Q 2644 4219 2406 4219 
Q 1781 4219 1451 3797 
Q 1122 3375 1075 2522 
Q 1259 2794 1537 2939 
Q 1816 3084 2150 3084 
Q 2853 3084 3261 2657 
Q 3669 2231 3669 1497 
Q 3669 778 3244 343 
Q 2819 -91 2113 -91 
Q 1303 -91 875 529 
Q 447 1150 447 2328 
Q 447 3434 972 4092 
Q 1497 4750 2381 4750 
Q 2619 4750 2861 4703 
Q 3103 4656 3366 4563 
z
" transform="scale(0.015625)"/>
      <path id="DejaVuSans-4c" d="M 628 4666 
L 1259 4666 
L 1259 531 
L 3531 531 
L 3531 0 
L 628 0 
L 628 4666 
z
" transform="scale(0.015625)"/>
      <path id="DejaVuSans-44" d="M 1259 4147 
L 1259 519 
L 2022 519 
Q 2988 519 3436 956 
Q 3884 1394 3884 2338 
Q 3884 3275 3436 3711 
Q 2988 4147 2022 4147 
L 1259 4147 
z
M 628 4666 
L 1925 4666 
Q 3281 4666 3915 4102 
Q 4550 3538 4550 2338 
Q 4550 1131 3912 565 
Q 3275 0 1925 0 
L 628 0 
L 628 4666 
z
" transform="scale(0.015625)"/>
      <path id="DejaVuSans-47" d="M 3809 666 
L 3809 1919 
L 2778 1919 
L 2778 2438 
L 4434 2438 
L 4434 434 
Q 4069 175 3628 42 
Q 3188 -91 2688 -91 
Q 1594 -91 976 548 
Q 359 1188 359 2328 
Q 359 3472 976 4111 
Q 1594 4750 2688 4750 
Q 3144 4750 3555 4637 
Q 3966 4525 4313 4306 
L 4313 3634 
Q 3963 3931 3569 4081 
Q 3175 4231 2741 4231 
Q 1884 4231 1454 3753 
Q 1025 3275 1025 2328 
Q 1025 1384 1454 906 
Q 1884 428 2741 428 
Q 3075 428 3337 486 
Q 3600 544 3809 666 
z
" transform="scale(0.015625)"/>
      <path id="DejaVuSans-52" d="M 2841 2188 
Q 3044 2119 3236 1894 
Q 3428 1669 3622 1275 
L 4263 0 
L 3584 0 
L 2988 1197 
Q 2756 1666 2539 1819 
Q 2322 1972 1947 1972 
L 1259 1972 
L 1259 0 
L 628 0 
L 628 4666 
L 2053 4666 
Q 2853 4666 3247 4331 
Q 3641 3997 3641 3322 
Q 3641 2881 3436 2590 
Q 3231 2300 2841 2188 
z
M 1259 4147 
L 1259 2491 
L 2053 2491 
Q 2509 2491 2742 2702 
Q 2975 2913 2975 3322 
Q 2975 3731 2742 3939 
Q 2509 4147 2053 4147 
L 1259 4147 
z
" transform="scale(0.015625)"/>
      <path id="DejaVuSans-77" d="M 269 3500 
L 844 3500 
L 1563 769 
L 2278 3500 
L 2956 3500 
L 3675 769 
L 4391 3500 
L 4966 3500 
L 4050 0 
L 3372 0 
L 2619 2869 
L 1863 0 
L 1184 0 
L 269 3500 
z
" transform="scale(0.015625)"/>
      <path id="DejaVuSans-29" d="M 513 4856 
L 1013 4856 
Q 1481 4119 1714 3412 
Q 1947 2706 1947 2009 
Q 1947 1309 1714 600 
Q 1481 -109 1013 -844 
L 513 -844 
Q 928 -128 1133 580 
Q 1338 1288 1338 2009 
Q 1338 2731 1133 3434 
Q 928 4138 513 4856 
z
" transform="scale(0.015625)"/>
     </defs>
     <use xlink:href="#DejaVuSans-53"/>
     <use xlink:href="#DejaVuSans-65" transform="translate(63.476562 0)"/>
     <use xlink:href="#DejaVuSans-63" transform="translate(125 0)"/>
     <use xlink:href="#DejaVuSans-74" transform="translate(179.980469 0)"/>
     <use xlink:href="#DejaVuSans-6f" transform="translate(219.189453 0)"/>
     <use xlink:href="#DejaVuSans-72" transform="translate(280.371094 0)"/>
     <use xlink:href="#DejaVuSans-3a" transform="translate(319.734375 0)"/>
     <use xlink:href="#DejaVuSans-20" transform="translate(353.425781 0)"/>
     <use xlink:href="#DejaVuSans-70" transform="translate(385.212891 0)"/>
     <use xlink:href="#DejaVuSans-68" transform="translate(448.689453 0)"/>
     <use xlink:href="#DejaVuSans-79" transform="translate(512.068359 0)"/>
     <use xlink:href="#DejaVuSans-73" transform="translate(571.248047 0)"/>
     <use xlink:href="#DejaVuSans-69" transform="translate(623.347656 0)"/>
     <use xlink:href="#DejaVuSans-63" transform="translate(651.130859 0)"/>
     <use xlink:href="#DejaVuSans-73" transform="translate(706.111328 0)"/>
     <use xlink:href="#DejaVuSans-2f" transform="translate(758.210938 0)"/>
     <use xlink:href="#DejaVuSans-45" transform="translate(791.902344 0)"/>
     <use xlink:href="#DejaVuSans-4d" transform="translate(855.085938 0)"/>
     <use xlink:href="#DejaVuSans-2d" transform="translate(941.365234 0)"/>
     <use xlink:href="#DejaVuSans-61" transform="translate(977.449219 0)"/>
     <use xlink:href="#DejaVuSans-6c" transform="translate(1038.728516 0)"/>
     <use xlink:href="#DejaVuSans-70" transform="translate(1066.511719 0)"/>
     <use xlink:href="#DejaVuSans-68" transform="translate(1129.988281 0)"/>
     <use xlink:href="#DejaVuSans-61" transform="translate(1193.367188 0)"/>
     <use xlink:href="#DejaVuSans-20" transform="translate(1254.646484 0)"/>
     <use xlink:href="#DejaVuSans-28" transform="translate(1286.433594 0)"/>
     <use xlink:href="#DejaVuSans-31" transform="translate(1325.447266 0)"/>
     <use xlink:href="#DejaVuSans-36" transform="translate(1389.070312 0)"/>
     <use xlink:href="#DejaVuSans-20" transform="translate(1452.693359 0)"/>
     <use xlink:href="#DejaVuSans-4c" transform="translate(1484.480469 0)"/>
     <use xlink:href="#DejaVuSans-45" transform="translate(1540.193359 0)"/>
     <use xlink:href="#DejaVuSans-44" transform="translate(1603.376953 0)"/>
     <use xlink:href="#DejaVuSans-47" transform="translate(1680.378906 0)"/>
     <use xlink:href="#DejaVuSans-45" transform="translate(1757.869141 0)"/>
     <use xlink:href="#DejaVuSans-52" transform="translate(1821.052734 0)"/>
     <use xlink:href="#DejaVuSans-20" transform="translate(1890.535156 0)"/>
     <use xlink:href="#DejaVuSans-72" transform="translate(1922.322266 0)"/>
     <use xlink:href="#DejaVuSans-6f" transform="translate(1961.185547 0)"/>
     <use xlink:href="#DejaVuSans-77" transform="translate(2022.367188 0)"/>
     <use xlink:href="#DejaVuSans-73" transform="translate(2104.154297 0)"/>
     <use xlink:href="#DejaVuSans-29" transform="translate(2156.253906 0)"/>
    </g>
   </g>
   <g id="text_2">
    <!-- Phase G emergent Coulomb at every fin... -->
    <g style="fill: #222222" transform="translate(499.348586 100.932606) scale(0.07 -0.07)">
     <defs>
      <path id="DejaVuSans-50" d="M 1259 4147 
L 1259 2394 
L 2053 2394 
Q 2494 2394 2734 2622 
Q 2975 2850 2975 3272 
Q 2975 3691 2734 3919 
Q 2494 4147 2053 4147 
L 1259 4147 
z
M 628 4666 
L 2053 4666 
Q 2838 4666 3239 4311 
Q 3641 3956 3641 3272 
Q 3641 2581 3239 2228 
Q 2838 1875 2053 1875 
L 1259 1875 
L 1259 0 
L 628 0 
L 628 4666 
z
" transform="scale(0.015625)"/>
      <path id="DejaVuSans-6d" d="M 3328 2828 
Q 3544 3216 3844 3400 
Q 4144 3584 4550 3584 
Q 5097 3584 5394 3201 
Q 5691 2819 5691 2113 
L 5691 0 
L 5113 0 
L 5113 2094 
Q 5113 2597 4934 2840 
Q 4756 3084 4391 3084 
Q 3944 3084 3684 2787 
Q 3425 2491 3425 1978 
L 3425 0 
L 2847 0 
L 2847 2094 
Q 2847 2600 2669 2842 
Q 2491 3084 2119 3084 
Q 1678 3084 1418 2786 
Q 1159 2488 1159 1978 
L 1159 0 
L 581 0 
L 581 3500 
L 1159 3500 
L 1159 2956 
Q 1356 3278 1631 3431 
Q 1906 3584 2284 3584 
Q 2666 3584 2933 3390 
Q 3200 3197 3328 2828 
z
" transform="scale(0.015625)"/>
      <path id="DejaVuSans-67" d="M 2906 1791 
Q 2906 2416 2648 2759 
Q 2391 3103 1925 3103 
Q 1463 3103 1205 2759 
Q 947 2416 947 1791 
Q 947 1169 1205 825 
Q 1463 481 1925 481 
Q 2391 481 2648 825 
Q 2906 1169 2906 1791 
z
M 3481 434 
Q 3481 -459 3084 -895 
Q 2688 -1331 1869 -1331 
Q 1566 -1331 1297 -1286 
Q 1028 -1241 775 -1147 
L 775 -588 
Q 1028 -725 1275 -790 
Q 1522 -856 1778 -856 
Q 2344 -856 2625 -561 
Q 2906 -266 2906 331 
L 2906 616 
Q 2728 306 2450 153 
Q 2172 0 1784 0 
Q 1141 0 747 490 
Q 353 981 353 1791 
Q 353 2603 747 3093 
Q 1141 3584 1784 3584 
Q 2172 3584 2450 3431 
Q 2728 3278 2906 2969 
L 2906 3500 
L 3481 3500 
L 3481 434 
z
" transform="scale(0.015625)"/>
      <path id="DejaVuSans-6e" d="M 3513 2113 
L 3513 0 
L 2938 0 
L 2938 2094 
Q 2938 2591 2744 2837 
Q 2550 3084 2163 3084 
Q 1697 3084 1428 2787 
Q 1159 2491 1159 1978 
L 1159 0 
L 581 0 
L 581 3500 
L 1159 3500 
L 1159 2956 
Q 1366 3272 1645 3428 
Q 1925 3584 2291 3584 
Q 2894 3584 3203 3211 
Q 3513 2838 3513 2113 
z
" transform="scale(0.015625)"/>
      <path id="DejaVuSans-43" d="M 4122 4306 
L 4122 3641 
Q 3803 3938 3442 4084 
Q 3081 4231 2675 4231 
Q 1875 4231 1450 3742 
Q 1025 3253 1025 2328 
Q 1025 1406 1450 917 
Q 1875 428 2675 428 
Q 3081 428 3442 575 
Q 3803 722 4122 1019 
L 4122 359 
Q 3791 134 3420 21 
Q 3050 -91 2638 -91 
Q 1578 -91 968 557 
Q 359 1206 359 2328 
Q 359 3453 968 4101 
Q 1578 4750 2638 4750 
Q 3056 4750 3426 4639 
Q 3797 4528 4122 4306 
z
" transform="scale(0.015625)"/>
      <path id="DejaVuSans-75" d="M 544 1381 
L 544 3500 
L 1119 3500 
L 1119 1403 
Q 1119 906 1312 657 
Q 1506 409 1894 409 
Q 2359 409 2629 706 
Q 2900 1003 2900 1516 
L 2900 3500 
L 3475 3500 
L 3475 0 
L 2900 0 
L 2900 538 
Q 2691 219 2414 64 
Q 2138 -91 1772 -91 
Q 1169 -91 856 284 
Q 544 659 544 1381 
z
M 1991 3584 
L 1991 3584 
z
" transform="scale(0.015625)"/>
      <path id="DejaVuSans-62" d="M 3116 1747 
Q 3116 2381 2855 2742 
Q 2594 3103 2138 3103 
Q 1681 3103 1420 2742 
Q 1159 2381 1159 1747 
Q 1159 1113 1420 752 
Q 1681 391 2138 391 
Q 2594 391 2855 752 
Q 3116 1113 3116 1747 
z
M 1159 2969 
Q 1341 3281 1617 3432 
Q 1894 3584 2278 3584 
Q 2916 3584 3314 3078 
Q 3713 2572 3713 1747 
Q 3713 922 3314 415 
Q 2916 -91 2278 -91 
Q 1894 -91 1617 61 
Q 1341 213 1159 525 
L 1159 0 
L 581 0 
L 581 4863 
L 1159 4863 
L 1159 2969 
z
" transform="scale(0.015625)"/>
      <path id="DejaVuSans-76" d="M 191 3500 
L 800 3500 
L 1894 563 
L 2988 3500 
L 3597 3500 
L 2284 0 
L 1503 0 
L 191 3500 
z
" transform="scale(0.015625)"/>
      <path id="DejaVuSans-66" d="M 2375 4863 
L 2375 4384 
L 1825 4384 
Q 1516 4384 1395 4259 
Q 1275 4134 1275 3809 
L 1275 3500 
L 2222 3500 
L 2222 3053 
L 1275 3053 
L 1275 0 
L 697 0 
L 697 3053 
L 147 3053 
L 147 3500 
L 697 3500 
L 697 3744 
Q 697 4328 969 4595 
Q 1241 4863 1831 4863 
L 2375 4863 
z
" transform="scale(0.015625)"/>
      <path id="DejaVuSans-2e" d="M 684 794 
L 1344 794 
L 1344 0 
L 684 0 
L 684 794 
z
" transform="scale(0.015625)"/>
     </defs>
     <use xlink:href="#DejaVuSans-50"/>
     <use xlink:href="#DejaVuSans-68" transform="translate(60.302734 0)"/>
     <use xlink:href="#DejaVuSans-61" transform="translate(123.681641 0)"/>
     <use xlink:href="#DejaVuSans-73" transform="translate(184.960938 0)"/>
     <use xlink:href="#DejaVuSans-65" transform="translate(237.060547 0)"/>
     <use xlink:href="#DejaVuSans-20" transform="translate(298.583984 0)"/>
     <use xlink:href="#DejaVuSans-47" transform="translate(330.371094 0)"/>
     <use xlink:href="#DejaVuSans-20" transform="translate(407.861328 0)"/>
     <use xlink:href="#DejaVuSans-65" transform="translate(439.648438 0)"/>
     <use xlink:href="#DejaVuSans-6d" transform="translate(501.171875 0)"/>
     <use xlink:href="#DejaVuSans-65" transform="translate(598.583984 0)"/>
     <use xlink:href="#DejaVuSans-72" transform="translate(660.107422 0)"/>
     <use xlink:href="#DejaVuSans-67" transform="translate(699.470703 0)"/>
     <use xlink:href="#DejaVuSans-65" transform="translate(762.947266 0)"/>
     <use xlink:href="#DejaVuSans-6e" transform="translate(824.470703 0)"/>
     <use xlink:href="#DejaVuSans-74" transform="translate(887.849609 0)"/>
     <use xlink:href="#DejaVuSans-20" transform="translate(927.058594 0)"/>
     <use xlink:href="#DejaVuSans-43" transform="translate(958.845703 0)"/>
     <use xlink:href="#DejaVuSans-6f" transform="translate(1028.669922 0)"/>
     <use xlink:href="#DejaVuSans-75" transform="translate(1089.851562 0)"/>
     <use xlink:href="#DejaVuSans-6c" transform="translate(1153.230469 0)"/>
     <use xlink:href="#DejaVuSans-6f" transform="translate(1181.013672 0)"/>
     <use xlink:href="#DejaVuSans-6d" transform="translate(1242.195312 0)"/>
     <use xlink:href="#DejaVuSans-62" transform="translate(1339.607422 0)"/>
     <use xlink:href="#DejaVuSans-20" transform="translate(1403.083984 0)"/>
     <use xlink:href="#DejaVuSans-61" transform="translate(1434.871094 0)"/>
     <use xlink:href="#DejaVuSans-74" transform="translate(1496.150391 0)"/>
     <use xlink:href="#DejaVuSans-20" transform="translate(1535.359375 0)"/>
     <use xlink:href="#DejaVuSans-65" transform="translate(1567.146484 0)"/>
     <use xlink:href="#DejaVuSans-76" transform="translate(1628.669922 0)"/>
     <use xlink:href="#DejaVuSans-65" transform="translate(1687.849609 0)"/>
     <use xlink:href="#DejaVuSans-72" transform="translate(1749.373047 0)"/>
     <use xlink:href="#DejaVuSans-79" transform="translate(1790.486328 0)"/>
     <use xlink:href="#DejaVuSans-20" transform="translate(1849.666016 0)"/>
     <use xlink:href="#DejaVuSans-66" transform="translate(1881.453125 0)"/>
     <use xlink:href="#DejaVuSans-69" transform="translate(1916.658203 0)"/>
     <use xlink:href="#DejaVuSans-6e" transform="translate(1944.441406 0)"/>
     <use xlink:href="#DejaVuSans-2e" transform="translate(2007.820312 0)"/>
     <use xlink:href="#DejaVuSans-2e" transform="translate(2039.607422 0)"/>
     <use xlink:href="#DejaVuSans-2e" transform="translate(2071.394531 0)"/>
    </g>
   </g>
   <g id="text_3">
    <!-- Phase H coupling scaling (g_c² scales... -->
    <g style="fill: #222222" transform="translate(36.563636 210.762934) scale(0.07 -0.07)">
     <defs>
      <path id="DejaVuSans-48" d="M 628 4666 
L 1259 4666 
L 1259 2753 
L 3553 2753 
L 3553 4666 
L 4184 4666 
L 4184 0 
L 3553 0 
L 3553 2222 
L 1259 2222 
L 1259 0 
L 628 0 
L 628 4666 
z
" transform="scale(0.015625)"/>
      <path id="DejaVuSans-5f" d="M 3263 -1063 
L 3263 -1509 
L -63 -1509 
L -63 -1063 
L 3263 -1063 
z
" transform="scale(0.015625)"/>
      <path id="DejaVuSans-b2" d="M 838 2444 
L 2163 2444 
L 2163 2088 
L 294 2088 
L 294 2431 
Q 400 2528 597 2703 
Q 1672 3656 1672 3950 
Q 1672 4156 1509 4282 
Q 1347 4409 1081 4409 
Q 919 4409 728 4354 
Q 538 4300 313 4191 
L 313 4575 
Q 553 4663 761 4706 
Q 969 4750 1147 4750 
Q 1600 4750 1872 4544 
Q 2144 4338 2144 4000 
Q 2144 3566 1109 2678 
Q 934 2528 838 2444 
z
" transform="scale(0.015625)"/>
     </defs>
     <use xlink:href="#DejaVuSans-50"/>
     <use xlink:href="#DejaVuSans-68" transform="translate(60.302734 0)"/>
     <use xlink:href="#DejaVuSans-61" transform="translate(123.681641 0)"/>
     <use xlink:href="#DejaVuSans-73" transform="translate(184.960938 0)"/>
     <use xlink:href="#DejaVuSans-65" transform="translate(237.060547 0)"/>
     <use xlink:href="#DejaVuSans-20" transform="translate(298.583984 0)"/>
     <use xlink:href="#DejaVuSans-48" transform="translate(330.371094 0)"/>
     <use xlink:href="#DejaVuSans-20" transform="translate(405.566406 0)"/>
     <use xlink:href="#DejaVuSans-63" transform="translate(437.353516 0)"/>
     <use xlink:href="#DejaVuSans-6f" transform="translate(492.333984 0)"/>
     <use xlink:href="#DejaVuSans-75" transform="translate(553.515625 0)"/>
     <use xlink:href="#DejaVuSans-70" transform="translate(616.894531 0)"/>
     <use xlink:href="#DejaVuSans-6c" transform="translate(680.371094 0)"/>
     <use xlink:href="#DejaVuSans-69" transform="translate(708.154297 0)"/>
     <use xlink:href="#DejaVuSans-6e" transform="translate(735.9375 0)"/>
     <use xlink:href="#DejaVuSans-67" transform="translate(799.316406 0)"/>
     <use xlink:href="#DejaVuSans-20" transform="translate(862.792969 0)"/>
     <use xlink:href="#DejaVuSans-73" transform="translate(894.580078 0)"/>
     <use xlink:href="#DejaVuSans-63" transform="translate(946.679688 0)"/>
     <use xlink:href="#DejaVuSans-61" transform="translate(1001.660156 0)"/>
     <use xlink:href="#DejaVuSans-6c" transform="translate(1062.939453 0)"/>
     <use xlink:href="#DejaVuSans-69" transform="translate(1090.722656 0)"/>
     <use xlink:href="#DejaVuSans-6e" transform="translate(1118.505859 0)"/>
     <use xlink:href="#DejaVuSans-67" transform="translate(1181.884766 0)"/>
     <use xlink:href="#DejaVuSans-20" transform="translate(1245.361328 0)"/>
     <use xlink:href="#DejaVuSans-28" transform="translate(1277.148438 0)"/>
     <use xlink:href="#DejaVuSans-67" transform="translate(1316.162109 0)"/>
     <use xlink:href="#DejaVuSans-5f" transform="translate(1379.638672 0)"/>
     <use xlink:href="#DejaVuSans-63" transform="translate(1429.638672 0)"/>
     <use xlink:href="#DejaVuSans-b2" transform="translate(1484.619141 0)"/>
     <use xlink:href="#DejaVuSans-20" transform="translate(1524.707031 0)"/>
     <use xlink:href="#DejaVuSans-73" transform="translate(1556.494141 0)"/>
     <use xlink:href="#DejaVuSans-63" transform="translate(1608.59375 0)"/>
     <use xlink:href="#DejaVuSans-61" transform="translate(1663.574219 0)"/>
     <use xlink:href="#DejaVuSans-6c" transform="translate(1724.853516 0)"/>
     <use xlink:href="#DejaVuSans-65" transform="translate(1752.636719 0)"/>
     <use xlink:href="#DejaVuSans-73" transform="translate(1814.160156 0)"/>
     <use xlink:href="#DejaVuSans-2e" transform="translate(1866.259766 0)"/>
     <use xlink:href="#DejaVuSans-2e" transform="translate(1898.046875 0)"/>
     <use xlink:href="#DejaVuSans-2e" transform="translate(1929.833984 0)"/>
    </g>
   </g>
   <g id="text_4">
    <!-- Alpha Readout Contract for MC-T4.3 -->
    <g style="fill: #222222" transform="translate(372.224423 195.501398) scale(0.07 -0.07)">
     <defs>
      <path id="DejaVuSans-41" d="M 2188 4044 
L 1331 1722 
L 3047 1722 
L 2188 4044 
z
M 1831 4666 
L 2547 4666 
L 4325 0 
L 3669 0 
L 3244 1197 
L 1141 1197 
L 716 0 
L 50 0 
L 1831 4666 
z
" transform="scale(0.015625)"/>
      <path id="DejaVuSans-64" d="M 2906 2969 
L 2906 4863 
L 3481 4863 
L 3481 0 
L 2906 0 
L 2906 525 
Q 2725 213 2448 61 
Q 2172 -91 1784 -91 
Q 1150 -91 751 415 
Q 353 922 353 1747 
Q 353 2572 751 3078 
Q 1150 3584 1784 3584 
Q 2172 3584 2448 3432 
Q 2725 3281 2906 2969 
z
M 947 1747 
Q 947 1113 1208 752 
Q 1469 391 1925 391 
Q 2381 391 2643 752 
Q 2906 1113 2906 1747 
Q 2906 2381 2643 2742 
Q 2381 3103 1925 3103 
Q 1469 3103 1208 2742 
Q 947 2381 947 1747 
z
" transform="scale(0.015625)"/>
      <path id="DejaVuSans-54" d="M -19 4666 
L 3928 4666 
L 3928 4134 
L 2272 4134 
L 2272 0 
L 1638 0 
L 1638 4134 
L -19 4134 
L -19 4666 
z
" transform="scale(0.015625)"/>
      <path id="DejaVuSans-34" d="M 2419 4116 
L 825 1625 
L 2419 1625 
L 2419 4116 
z
M 2253 4666 
L 3047 4666 
L 3047 1625 
L 3713 1625 
L 3713 1100 
L 3047 1100 
L 3047 0 
L 2419 0 
L 2419 1100 
L 313 1100 
L 313 1709 
L 2253 4666 
z
" transform="scale(0.015625)"/>
      <path id="DejaVuSans-33" d="M 2597 2516 
Q 3050 2419 3304 2112 
Q 3559 1806 3559 1356 
Q 3559 666 3084 287 
Q 2609 -91 1734 -91 
Q 1441 -91 1130 -33 
Q 819 25 488 141 
L 488 750 
Q 750 597 1062 519 
Q 1375 441 1716 441 
Q 2309 441 2620 675 
Q 2931 909 2931 1356 
Q 2931 1769 2642 2001 
Q 2353 2234 1838 2234 
L 1294 2234 
L 1294 2753 
L 1863 2753 
Q 2328 2753 2575 2939 
Q 2822 3125 2822 3475 
Q 2822 3834 2567 4026 
Q 2313 4219 1838 4219 
Q 1578 4219 1281 4162 
Q 984 4106 628 3988 
L 628 4550 
Q 988 4650 1302 4700 
Q 1616 4750 1894 4750 
Q 2613 4750 3031 4423 
Q 3450 4097 3450 3541 
Q 3450 3153 3228 2886 
Q 3006 2619 2597 2516 
z
" transform="scale(0.015625)"/>
     </defs>
     <use xlink:href="#DejaVuSans-41"/>
     <use xlink:href="#DejaVuSans-6c" transform="translate(68.408203 0)"/>
     <use xlink:href="#DejaVuSans-70" transform="translate(96.191406 0)"/>
     <use xlink:href="#DejaVuSans-68" transform="translate(159.667969 0)"/>
     <use xlink:href="#DejaVuSans-61" transform="translate(223.046875 0)"/>
     <use xlink:href="#DejaVuSans-20" transform="translate(284.326172 0)"/>
     <use xlink:href="#DejaVuSans-52" transform="translate(316.113281 0)"/>
     <use xlink:href="#DejaVuSans-65" transform="translate(381.095703 0)"/>
     <use xlink:href="#DejaVuSans-61" transform="translate(442.619141 0)"/>
     <use xlink:href="#DejaVuSans-64" transform="translate(503.898438 0)"/>
     <use xlink:href="#DejaVuSans-6f" transform="translate(567.375 0)"/>
     <use xlink:href="#DejaVuSans-75" transform="translate(628.556641 0)"/>
     <use xlink:href="#DejaVuSans-74" transform="translate(691.935547 0)"/>
     <use xlink:href="#DejaVuSans-20" transform="translate(731.144531 0)"/>
     <use xlink:href="#DejaVuSans-43" transform="translate(762.931641 0)"/>
     <use xlink:href="#DejaVuSans-6f" transform="translate(832.755859 0)"/>
     <use xlink:href="#DejaVuSans-6e" transform="translate(893.9375 0)"/>
     <use xlink:href="#DejaVuSans-74" transform="translate(957.316406 0)"/>
     <use xlink:href="#DejaVuSans-72" transform="translate(996.525391 0)"/>
     <use xlink:href="#DejaVuSans-61" transform="translate(1037.638672 0)"/>
     <use xlink:href="#DejaVuSans-63" transform="translate(1098.917969 0)"/>
     <use xlink:href="#DejaVuSans-74" transform="translate(1153.898438 0)"/>
     <use xlink:href="#DejaVuSans-20" transform="translate(1193.107422 0)"/>
     <use xlink:href="#DejaVuSans-66" transform="translate(1224.894531 0)"/>
     <use xlink:href="#DejaVuSans-6f" transform="translate(1260.099609 0)"/>
     <use xlink:href="#DejaVuSans-72" transform="translate(1321.28125 0)"/>
     <use xlink:href="#DejaVuSans-20" transform="translate(1362.394531 0)"/>
     <use xlink:href="#DejaVuSans-4d" transform="translate(1394.181641 0)"/>
     <use xlink:href="#DejaVuSans-43" transform="translate(1480.460938 0)"/>
     <use xlink:href="#DejaVuSans-2d" transform="translate(1550.285156 0)"/>
     <use xlink:href="#DejaVuSans-54" transform="translate(1577.244141 0)"/>
     <use xlink:href="#DejaVuSans-34" transform="translate(1638.328125 0)"/>
     <use xlink:href="#DejaVuSans-2e" transform="translate(1701.951172 0)"/>
     <use xlink:href="#DejaVuSans-33" transform="translate(1733.738281 0)"/>
    </g>
   </g>
   <g id="text_5">
    <!-- Boundary theorem Stage 1 — the struct... -->
    <g style="fill: #222222" transform="translate(394.155408 163.199454) scale(0.07 -0.07)">
     <defs>
      <path id="DejaVuSans-42" d="M 1259 2228 
L 1259 519 
L 2272 519 
Q 2781 519 3026 730 
Q 3272 941 3272 1375 
Q 3272 1813 3026 2020 
Q 2781 2228 2272 2228 
L 1259 2228 
z
M 1259 4147 
L 1259 2741 
L 2194 2741 
Q 2656 2741 2882 2914 
Q 3109 3088 3109 3444 
Q 3109 3797 2882 3972 
Q 2656 4147 2194 4147 
L 1259 4147 
z
M 628 4666 
L 2241 4666 
Q 2963 4666 3353 4366 
Q 3744 4066 3744 3513 
Q 3744 3084 3544 2831 
Q 3344 2578 2956 2516 
Q 3422 2416 3680 2098 
Q 3938 1781 3938 1306 
Q 3938 681 3513 340 
Q 3088 0 2303 0 
L 628 0 
L 628 4666 
z
" transform="scale(0.015625)"/>
      <path id="DejaVuSans-2014" d="M 313 1978 
L 6088 1978 
L 6088 1528 
L 313 1528 
L 313 1978 
z
" transform="scale(0.015625)"/>
     </defs>
     <use xlink:href="#DejaVuSans-42"/>
     <use xlink:href="#DejaVuSans-6f" transform="translate(68.603516 0)"/>
     <use xlink:href="#DejaVuSans-75" transform="translate(129.785156 0)"/>
     <use xlink:href="#DejaVuSans-6e" transform="translate(193.164062 0)"/>
     <use xlink:href="#DejaVuSans-64" transform="translate(256.542969 0)"/>
     <use xlink:href="#DejaVuSans-61" transform="translate(320.019531 0)"/>
     <use xlink:href="#DejaVuSans-72" transform="translate(381.298828 0)"/>
     <use xlink:href="#DejaVuSans-79" transform="translate(422.412109 0)"/>
     <use xlink:href="#DejaVuSans-20" transform="translate(481.591797 0)"/>
     <use xlink:href="#DejaVuSans-74" transform="translate(513.378906 0)"/>
     <use xlink:href="#DejaVuSans-68" transform="translate(552.587891 0)"/>
     <use xlink:href="#DejaVuSans-65" transform="translate(615.966797 0)"/>
     <use xlink:href="#DejaVuSans-6f" transform="translate(677.490234 0)"/>
     <use xlink:href="#DejaVuSans-72" transform="translate(738.671875 0)"/>
     <use xlink:href="#DejaVuSans-65" transform="translate(777.535156 0)"/>
     <use xlink:href="#DejaVuSans-6d" transform="translate(839.058594 0)"/>
     <use xlink:href="#DejaVuSans-20" transform="translate(936.470703 0)"/>
     <use xlink:href="#DejaVuSans-53" transform="translate(968.257812 0)"/>
     <use xlink:href="#DejaVuSans-74" transform="translate(1031.734375 0)"/>
     <use xlink:href="#DejaVuSans-61" transform="translate(1070.943359 0)"/>
     <use xlink:href="#DejaVuSans-67" transform="translate(1132.222656 0)"/>
     <use xlink:href="#DejaVuSans-65" transform="translate(1195.699219 0)"/>
     <use xlink:href="#DejaVuSans-20" transform="translate(1257.222656 0)"/>
     <use xlink:href="#DejaVuSans-31" transform="translate(1289.009766 0)"/>
     <use xlink:href="#DejaVuSans-20" transform="translate(1352.632812 0)"/>
     <use xlink:href="#DejaVuSans-2014" transform="translate(1384.419922 0)"/>
     <use xlink:href="#DejaVuSans-20" transform="translate(1484.419922 0)"/>
     <use xlink:href="#DejaVuSans-74" transform="translate(1516.207031 0)"/>
     <use xlink:href="#DejaVuSans-68" transform="translate(1555.416016 0)"/>
     <use xlink:href="#DejaVuSans-65" transform="translate(1618.794922 0)"/>
     <use xlink:href="#DejaVuSans-20" transform="translate(1680.318359 0)"/>
     <use xlink:href="#DejaVuSans-73" transform="translate(1712.105469 0)"/>
     <use xlink:href="#DejaVuSans-74" transform="translate(1764.205078 0)"/>
     <use xlink:href="#DejaVuSans-72" transform="translate(1803.414062 0)"/>
     <use xlink:href="#DejaVuSans-75" transform="translate(1844.527344 0)"/>
     <use xlink:href="#DejaVuSans-63" transform="translate(1907.90625 0)"/>
     <use xlink:href="#DejaVuSans-74" transform="translate(1962.886719 0)"/>
     <use xlink:href="#DejaVuSans-2e" transform="translate(2002.095703 0)"/>
     <use xlink:href="#DejaVuSans-2e" transform="translate(2033.882812 0)"/>
     <use xlink:href="#DejaVuSans-2e" transform="translate(2065.669922 0)"/>
    </g>
   </g>
   <g id="text_6">
    <!-- g_c first-principles derivation -->
    <g style="fill: #222222" transform="translate(384.72855 210.762934) scale(0.07 -0.07)">
     <use xlink:href="#DejaVuSans-67"/>
     <use xlink:href="#DejaVuSans-5f" transform="translate(63.476562 0)"/>
     <use xlink:href="#DejaVuSans-63" transform="translate(113.476562 0)"/>
     <use xlink:href="#DejaVuSans-20" transform="translate(168.457031 0)"/>
     <use xlink:href="#DejaVuSans-66" transform="translate(200.244141 0)"/>
     <use xlink:href="#DejaVuSans-69" transform="translate(235.449219 0)"/>
     <use xlink:href="#DejaVuSans-72" transform="translate(263.232422 0)"/>
     <use xlink:href="#DejaVuSans-73" transform="translate(304.345703 0)"/>
     <use xlink:href="#DejaVuSans-74" transform="translate(356.445312 0)"/>
     <use xlink:href="#DejaVuSans-2d" transform="translate(395.654297 0)"/>
     <use xlink:href="#DejaVuSans-70" transform="translate(431.738281 0)"/>
     <use xlink:href="#DejaVuSans-72" transform="translate(495.214844 0)"/>
     <use xlink:href="#DejaVuSans-69" transform="translate(536.328125 0)"/>
     <use xlink:href="#DejaVuSans-6e" transform="translate(564.111328 0)"/>
     <use xlink:href="#DejaVuSans-63" transform="translate(627.490234 0)"/>
     <use xlink:href="#DejaVuSans-69" transform="translate(682.470703 0)"/>
     <use xlink:href="#DejaVuSans-70" transform="translate(710.253906 0)"/>
     <use xlink:href="#DejaVuSans-6c" transform="translate(773.730469 0)"/>
     <use xlink:href="#DejaVuSans-65" transform="translate(801.513672 0)"/>
     <use xlink:href="#DejaVuSans-73" transform="translate(863.037109 0)"/>
     <use xlink:href="#DejaVuSans-20" transform="translate(915.136719 0)"/>
     <use xlink:href="#DejaVuSans-64" transform="translate(946.923828 0)"/>
     <use xlink:href="#DejaVuSans-65" transform="translate(1010.400391 0)"/>
     <use xlink:href="#DejaVuSans-72" transform="translate(1071.923828 0)"/>
     <use xlink:href="#DejaVuSans-69" transform="translate(1113.037109 0)"/>
     <use xlink:href="#DejaVuSans-76" transform="translate(1140.820312 0)"/>
     <use xlink:href="#DejaVuSans-61" transform="translate(1200 0)"/>
     <use xlink:href="#DejaVuSans-74" transform="translate(1261.279297 0)"/>
     <use xlink:href="#DejaVuSans-69" transform="translate(1300.488281 0)"/>
     <use xlink:href="#DejaVuSans-6f" transform="translate(1328.271484 0)"/>
     <use xlink:href="#DejaVuSans-6e" transform="translate(1389.453125 0)"/>
    </g>
   </g>
   <g id="text_7">
    <!-- Phase-4e spin-field readout: mode-pre... -->
    <g style="fill: #222222" transform="translate(438.532099 196.839657) scale(0.07 -0.07)">
     <use xlink:href="#DejaVuSans-50"/>
     <use xlink:href="#DejaVuSans-68" transform="translate(60.302734 0)"/>
     <use xlink:href="#DejaVuSans-61" transform="translate(123.681641 0)"/>
     <use xlink:href="#DejaVuSans-73" transform="translate(184.960938 0)"/>
     <use xlink:href="#DejaVuSans-65" transform="translate(237.060547 0)"/>
     <use xlink:href="#DejaVuSans-2d" transform="translate(298.583984 0)"/>
     <use xlink:href="#DejaVuSans-34" transform="translate(334.667969 0)"/>
     <use xlink:href="#DejaVuSans-65" transform="translate(398.291016 0)"/>
     <use xlink:href="#DejaVuSans-20" transform="translate(459.814453 0)"/>
     <use xlink:href="#DejaVuSans-73" transform="translate(491.601562 0)"/>
     <use xlink:href="#DejaVuSans-70" transform="translate(543.701172 0)"/>
     <use xlink:href="#DejaVuSans-69" transform="translate(607.177734 0)"/>
     <use xlink:href="#DejaVuSans-6e" transform="translate(634.960938 0)"/>
     <use xlink:href="#DejaVuSans-2d" transform="translate(698.339844 0)"/>
     <use xlink:href="#DejaVuSans-66" transform="translate(734.423828 0)"/>
     <use xlink:href="#DejaVuSans-69" transform="translate(769.628906 0)"/>
     <use xlink:href="#DejaVuSans-65" transform="translate(797.412109 0)"/>
     <use xlink:href="#DejaVuSans-6c" transform="translate(858.935547 0)"/>
     <use xlink:href="#DejaVuSans-64" transform="translate(886.71875 0)"/>
     <use xlink:href="#DejaVuSans-20" transform="translate(950.195312 0)"/>
     <use xlink:href="#DejaVuSans-72" transform="translate(981.982422 0)"/>
     <use xlink:href="#DejaVuSans-65" transform="translate(1020.845703 0)"/>
     <use xlink:href="#DejaVuSans-61" transform="translate(1082.369141 0)"/>
     <use xlink:href="#DejaVuSans-64" transform="translate(1143.648438 0)"/>
     <use xlink:href="#DejaVuSans-6f" transform="translate(1207.125 0)"/>
     <use xlink:href="#DejaVuSans-75" transform="translate(1268.306641 0)"/>
     <use xlink:href="#DejaVuSans-74" transform="translate(1331.685547 0)"/>
     <use xlink:href="#DejaVuSans-3a" transform="translate(1370.894531 0)"/>
     <use xlink:href="#DejaVuSans-20" transform="translate(1404.585938 0)"/>
     <use xlink:href="#DejaVuSans-6d" transform="translate(1436.373047 0)"/>
     <use xlink:href="#DejaVuSans-6f" transform="translate(1533.785156 0)"/>
     <use xlink:href="#DejaVuSans-64" transform="translate(1594.966797 0)"/>
     <use xlink:href="#DejaVuSans-65" transform="translate(1658.443359 0)"/>
     <use xlink:href="#DejaVuSans-2d" transform="translate(1719.966797 0)"/>
     <use xlink:href="#DejaVuSans-70" transform="translate(1756.050781 0)"/>
     <use xlink:href="#DejaVuSans-72" transform="translate(1819.527344 0)"/>
     <use xlink:href="#DejaVuSans-65" transform="translate(1858.390625 0)"/>
     <use xlink:href="#DejaVuSans-2e" transform="translate(1919.914062 0)"/>
     <use xlink:href="#DejaVuSans-2e" transform="translate(1951.701172 0)"/>
     <use xlink:href="#DejaVuSans-2e" transform="translate(1983.488281 0)"/>
    </g>
   </g>
   <g id="text_8">
    <!-- Lattice Liénard-Wiechert at uniform v... -->
    <g style="fill: #222222" transform="translate(468.640202 77.617844) scale(0.07 -0.07)">
     <defs>
      <path id="DejaVuSans-e9" d="M 3597 1894 
L 3597 1613 
L 953 1613 
Q 991 1019 1311 708 
Q 1631 397 2203 397 
Q 2534 397 2845 478 
Q 3156 559 3463 722 
L 3463 178 
Q 3153 47 2828 -22 
Q 2503 -91 2169 -91 
Q 1331 -91 842 396 
Q 353 884 353 1716 
Q 353 2575 817 3079 
Q 1281 3584 2069 3584 
Q 2775 3584 3186 3129 
Q 3597 2675 3597 1894 
z
M 3022 2063 
Q 3016 2534 2758 2815 
Q 2500 3097 2075 3097 
Q 1594 3097 1305 2825 
Q 1016 2553 972 2059 
L 3022 2063 
z
M 2466 5119 
L 3088 5119 
L 2070 3944 
L 1591 3944 
L 2466 5119 
z
" transform="scale(0.015625)"/>
      <path id="DejaVuSans-57" d="M 213 4666 
L 850 4666 
L 1831 722 
L 2809 4666 
L 3519 4666 
L 4500 722 
L 5478 4666 
L 6119 4666 
L 4947 0 
L 4153 0 
L 3169 4050 
L 2175 0 
L 1381 0 
L 213 4666 
z
" transform="scale(0.015625)"/>
     </defs>
     <use xlink:href="#DejaVuSans-4c"/>
     <use xlink:href="#DejaVuSans-61" transform="translate(55.712891 0)"/>
     <use xlink:href="#DejaVuSans-74" transform="translate(116.992188 0)"/>
     <use xlink:href="#DejaVuSans-74" transform="translate(156.201172 0)"/>
     <use xlink:href="#DejaVuSans-69" transform="translate(195.410156 0)"/>
     <use xlink:href="#DejaVuSans-63" transform="translate(223.193359 0)"/>
     <use xlink:href="#DejaVuSans-65" transform="translate(278.173828 0)"/>
     <use xlink:href="#DejaVuSans-20" transform="translate(339.697266 0)"/>
     <use xlink:href="#DejaVuSans-4c" transform="translate(371.484375 0)"/>
     <use xlink:href="#DejaVuSans-69" transform="translate(427.197266 0)"/>
     <use xlink:href="#DejaVuSans-e9" transform="translate(454.980469 0)"/>
     <use xlink:href="#DejaVuSans-6e" transform="translate(516.503906 0)"/>
     <use xlink:href="#DejaVuSans-61" transform="translate(579.882812 0)"/>
     <use xlink:href="#DejaVuSans-72" transform="translate(641.162109 0)"/>
     <use xlink:href="#DejaVuSans-64" transform="translate(680.525391 0)"/>
     <use xlink:href="#DejaVuSans-2d" transform="translate(744.001953 0)"/>
     <use xlink:href="#DejaVuSans-57" transform="translate(776.085938 0)"/>
     <use xlink:href="#DejaVuSans-69" transform="translate(872.712891 0)"/>
     <use xlink:href="#DejaVuSans-65" transform="translate(900.496094 0)"/>
     <use xlink:href="#DejaVuSans-63" transform="translate(962.019531 0)"/>
     <use xlink:href="#DejaVuSans-68" transform="translate(1017 0)"/>
     <use xlink:href="#DejaVuSans-65" transform="translate(1080.378906 0)"/>
     <use xlink:href="#DejaVuSans-72" transform="translate(1141.902344 0)"/>
     <use xlink:href="#DejaVuSans-74" transform="translate(1183.015625 0)"/>
     <use xlink:href="#DejaVuSans-20" transform="translate(1222.224609 0)"/>
     <use xlink:href="#DejaVuSans-61" transform="translate(1254.011719 0)"/>
     <use xlink:href="#DejaVuSans-74" transform="translate(1315.291016 0)"/>
     <use xlink:href="#DejaVuSans-20" transform="translate(1354.5 0)"/>
     <use xlink:href="#DejaVuSans-75" transform="translate(1386.287109 0)"/>
     <use xlink:href="#DejaVuSans-6e" transform="translate(1449.666016 0)"/>
     <use xlink:href="#DejaVuSans-69" transform="translate(1513.044922 0)"/>
     <use xlink:href="#DejaVuSans-66" transform="translate(1540.828125 0)"/>
     <use xlink:href="#DejaVuSans-6f" transform="translate(1576.033203 0)"/>
     <use xlink:href="#DejaVuSans-72" transform="translate(1637.214844 0)"/>
     <use xlink:href="#DejaVuSans-6d" transform="translate(1676.578125 0)"/>
     <use xlink:href="#DejaVuSans-20" transform="translate(1773.990234 0)"/>
     <use xlink:href="#DejaVuSans-76" transform="translate(1805.777344 0)"/>
     <use xlink:href="#DejaVuSans-2e" transform="translate(1857.207031 0)"/>
     <use xlink:href="#DejaVuSans-2e" transform="translate(1888.994141 0)"/>
     <use xlink:href="#DejaVuSans-2e" transform="translate(1920.78125 0)"/>
    </g>
   </g>
   <g id="text_9">
    <!-- Lattice Hodge duality preserved on FT... -->
    <g style="fill: #222222" transform="translate(495.827398 74.623002) scale(0.07 -0.07)">
     <defs>
      <path id="DejaVuSans-46" d="M 628 4666 
L 3309 4666 
L 3309 4134 
L 1259 4134 
L 1259 2759 
L 3109 2759 
L 3109 2228 
L 1259 2228 
L 1259 0 
L 628 0 
L 628 4666 
z
" transform="scale(0.015625)"/>
     </defs>
     <use xlink:href="#DejaVuSans-4c"/>
     <use xlink:href="#DejaVuSans-61" transform="translate(55.712891 0)"/>
     <use xlink:href="#DejaVuSans-74" transform="translate(116.992188 0)"/>
     <use xlink:href="#DejaVuSans-74" transform="translate(156.201172 0)"/>
     <use xlink:href="#DejaVuSans-69" transform="translate(195.410156 0)"/>
     <use xlink:href="#DejaVuSans-63" transform="translate(223.193359 0)"/>
     <use xlink:href="#DejaVuSans-65" transform="translate(278.173828 0)"/>
     <use xlink:href="#DejaVuSans-20" transform="translate(339.697266 0)"/>
     <use xlink:href="#DejaVuSans-48" transform="translate(371.484375 0)"/>
     <use xlink:href="#DejaVuSans-6f" transform="translate(446.679688 0)"/>
     <use xlink:href="#DejaVuSans-64" transform="translate(507.861328 0)"/>
     <use xlink:href="#DejaVuSans-67" transform="translate(571.337891 0)"/>
     <use xlink:href="#DejaVuSans-65" transform="translate(634.814453 0)"/>
     <use xlink:href="#DejaVuSans-20" transform="translate(696.337891 0)"/>
     <use xlink:href="#DejaVuSans-64" transform="translate(728.125 0)"/>
     <use xlink:href="#DejaVuSans-75" transform="translate(791.601562 0)"/>
     <use xlink:href="#DejaVuSans-61" transform="translate(854.980469 0)"/>
     <use xlink:href="#DejaVuSans-6c" transform="translate(916.259766 0)"/>
     <use xlink:href="#DejaVuSans-69" transform="translate(944.042969 0)"/>
     <use xlink:href="#DejaVuSans-74" transform="translate(971.826172 0)"/>
     <use xlink:href="#DejaVuSans-79" transform="translate(1011.035156 0)"/>
     <use xlink:href="#DejaVuSans-20" transform="translate(1070.214844 0)"/>
     <use xlink:href="#DejaVuSans-70" transform="translate(1102.001953 0)"/>
     <use xlink:href="#DejaVuSans-72" transform="translate(1165.478516 0)"/>
     <use xlink:href="#DejaVuSans-65" transform="translate(1204.341797 0)"/>
     <use xlink:href="#DejaVuSans-73" transform="translate(1265.865234 0)"/>
     <use xlink:href="#DejaVuSans-65" transform="translate(1317.964844 0)"/>
     <use xlink:href="#DejaVuSans-72" transform="translate(1379.488281 0)"/>
     <use xlink:href="#DejaVuSans-76" transform="translate(1420.601562 0)"/>
     <use xlink:href="#DejaVuSans-65" transform="translate(1479.78125 0)"/>
     <use xlink:href="#DejaVuSans-64" transform="translate(1541.304688 0)"/>
     <use xlink:href="#DejaVuSans-20" transform="translate(1604.78125 0)"/>
     <use xlink:href="#DejaVuSans-6f" transform="translate(1636.568359 0)"/>
     <use xlink:href="#DejaVuSans-6e" transform="translate(1697.75 0)"/>
     <use xlink:href="#DejaVuSans-20" transform="translate(1761.128906 0)"/>
     <use xlink:href="#DejaVuSans-46" transform="translate(1792.916016 0)"/>
     <use xlink:href="#DejaVuSans-54" transform="translate(1848.685547 0)"/>
     <use xlink:href="#DejaVuSans-2e" transform="translate(1897.894531 0)"/>
     <use xlink:href="#DejaVuSans-2e" transform="translate(1929.681641 0)"/>
     <use xlink:href="#DejaVuSans-2e" transform="translate(1961.46875 0)"/>
    </g>
   </g>
   <g id="text_10">
    <!-- Maxwell-exploit thread closure: Q5/Q6... -->
    <g style="fill: #222222" transform="translate(442.484096 80.20025) scale(0.07 -0.07)">
     <defs>
      <path id="DejaVuSans-78" d="M 3513 3500 
L 2247 1797 
L 3578 0 
L 2900 0 
L 1881 1375 
L 863 0 
L 184 0 
L 1544 1831 
L 300 3500 
L 978 3500 
L 1906 2253 
L 2834 3500 
L 3513 3500 
z
" transform="scale(0.015625)"/>
      <path id="DejaVuSans-51" d="M 2522 4238 
Q 1834 4238 1429 3725 
Q 1025 3213 1025 2328 
Q 1025 1447 1429 934 
Q 1834 422 2522 422 
Q 3209 422 3611 934 
Q 4013 1447 4013 2328 
Q 4013 3213 3611 3725 
Q 3209 4238 2522 4238 
z
M 3406 84 
L 4238 -825 
L 3475 -825 
L 2784 -78 
Q 2681 -84 2626 -87 
Q 2572 -91 2522 -91 
Q 1538 -91 948 567 
Q 359 1225 359 2328 
Q 359 3434 948 4092 
Q 1538 4750 2522 4750 
Q 3503 4750 4090 4092 
Q 4678 3434 4678 2328 
Q 4678 1516 4351 937 
Q 4025 359 3406 84 
z
" transform="scale(0.015625)"/>
      <path id="DejaVuSans-35" d="M 691 4666 
L 3169 4666 
L 3169 4134 
L 1269 4134 
L 1269 2991 
Q 1406 3038 1543 3061 
Q 1681 3084 1819 3084 
Q 2600 3084 3056 2656 
Q 3513 2228 3513 1497 
Q 3513 744 3044 326 
Q 2575 -91 1722 -91 
Q 1428 -91 1123 -41 
Q 819 9 494 109 
L 494 744 
Q 775 591 1075 516 
Q 1375 441 1709 441 
Q 2250 441 2565 725 
Q 2881 1009 2881 1497 
Q 2881 1984 2565 2268 
Q 2250 2553 1709 2553 
Q 1456 2553 1204 2497 
Q 953 2441 691 2322 
L 691 4666 
z
" transform="scale(0.015625)"/>
     </defs>
     <use xlink:href="#DejaVuSans-4d"/>
     <use xlink:href="#DejaVuSans-61" transform="translate(86.279297 0)"/>
     <use xlink:href="#DejaVuSans-78" transform="translate(147.558594 0)"/>
     <use xlink:href="#DejaVuSans-77" transform="translate(206.738281 0)"/>
     <use xlink:href="#DejaVuSans-65" transform="translate(288.525391 0)"/>
     <use xlink:href="#DejaVuSans-6c" transform="translate(350.048828 0)"/>
     <use xlink:href="#DejaVuSans-6c" transform="translate(377.832031 0)"/>
     <use xlink:href="#DejaVuSans-2d" transform="translate(405.615234 0)"/>
     <use xlink:href="#DejaVuSans-65" transform="translate(441.699219 0)"/>
     <use xlink:href="#DejaVuSans-78" transform="translate(501.472656 0)"/>
     <use xlink:href="#DejaVuSans-70" transform="translate(560.652344 0)"/>
     <use xlink:href="#DejaVuSans-6c" transform="translate(624.128906 0)"/>
     <use xlink:href="#DejaVuSans-6f" transform="translate(651.912109 0)"/>
     <use xlink:href="#DejaVuSans-69" transform="translate(713.09375 0)"/>
     <use xlink:href="#DejaVuSans-74" transform="translate(740.876953 0)"/>
     <use xlink:href="#DejaVuSans-20" transform="translate(780.085938 0)"/>
     <use xlink:href="#DejaVuSans-74" transform="translate(811.873047 0)"/>
     <use xlink:href="#DejaVuSans-68" transform="translate(851.082031 0)"/>
     <use xlink:href="#DejaVuSans-72" transform="translate(914.460938 0)"/>
     <use xlink:href="#DejaVuSans-65" transform="translate(953.324219 0)"/>
     <use xlink:href="#DejaVuSans-61" transform="translate(1014.847656 0)"/>
     <use xlink:href="#DejaVuSans-64" transform="translate(1076.126953 0)"/>
     <use xlink:href="#DejaVuSans-20" transform="translate(1139.603516 0)"/>
     <use xlink:href="#DejaVuSans-63" transform="translate(1171.390625 0)"/>
     <use xlink:href="#DejaVuSans-6c" transform="translate(1226.371094 0)"/>
     <use xlink:href="#DejaVuSans-6f" transform="translate(1254.154297 0)"/>
     <use xlink:href="#DejaVuSans-73" transform="translate(1315.335938 0)"/>
     <use xlink:href="#DejaVuSans-75" transform="translate(1367.435547 0)"/>
     <use xlink:href="#DejaVuSans-72" transform="translate(1430.814453 0)"/>
     <use xlink:href="#DejaVuSans-65" transform="translate(1469.677734 0)"/>
     <use xlink:href="#DejaVuSans-3a" transform="translate(1531.201172 0)"/>
     <use xlink:href="#DejaVuSans-20" transform="translate(1564.892578 0)"/>
     <use xlink:href="#DejaVuSans-51" transform="translate(1596.679688 0)"/>
     <use xlink:href="#DejaVuSans-35" transform="translate(1675.390625 0)"/>
     <use xlink:href="#DejaVuSans-2f" transform="translate(1739.013672 0)"/>
     <use xlink:href="#DejaVuSans-51" transform="translate(1772.705078 0)"/>
     <use xlink:href="#DejaVuSans-36" transform="translate(1851.416016 0)"/>
     <use xlink:href="#DejaVuSans-2e" transform="translate(1915.039062 0)"/>
     <use xlink:href="#DejaVuSans-2e" transform="translate(1946.826172 0)"/>
     <use xlink:href="#DejaVuSans-2e" transform="translate(1978.613281 0)"/>
    </g>
   </g>
   <g id="text_11">
    <!-- Retarded extension of Phase G — latti... -->
    <g style="fill: #222222" transform="translate(467.413968 27.482164) scale(0.07 -0.07)">
     <use xlink:href="#DejaVuSans-52"/>
     <use xlink:href="#DejaVuSans-65" transform="translate(64.982422 0)"/>
     <use xlink:href="#DejaVuSans-74" transform="translate(126.505859 0)"/>
     <use xlink:href="#DejaVuSans-61" transform="translate(165.714844 0)"/>
     <use xlink:href="#DejaVuSans-72" transform="translate(226.994141 0)"/>
     <use xlink:href="#DejaVuSans-64" transform="translate(266.357422 0)"/>
     <use xlink:href="#DejaVuSans-65" transform="translate(329.833984 0)"/>
     <use xlink:href="#DejaVuSans-64" transform="translate(391.357422 0)"/>
     <use xlink:href="#DejaVuSans-20" transform="translate(454.833984 0)"/>
     <use xlink:href="#DejaVuSans-65" transform="translate(486.621094 0)"/>
     <use xlink:href="#DejaVuSans-78" transform="translate(546.394531 0)"/>
     <use xlink:href="#DejaVuSans-74" transform="translate(605.574219 0)"/>
     <use xlink:href="#DejaVuSans-65" transform="translate(644.783203 0)"/>
     <use xlink:href="#DejaVuSans-6e" transform="translate(706.306641 0)"/>
     <use xlink:href="#DejaVuSans-73" transform="translate(769.685547 0)"/>
     <use xlink:href="#DejaVuSans-69" transform="translate(821.785156 0)"/>
     <use xlink:href="#DejaVuSans-6f" transform="translate(849.568359 0)"/>
     <use xlink:href="#DejaVuSans-6e" transform="translate(910.75 0)"/>
     <use xlink:href="#DejaVuSans-20" transform="translate(974.128906 0)"/>
     <use xlink:href="#DejaVuSans-6f" transform="translate(1005.916016 0)"/>
     <use xlink:href="#DejaVuSans-66" transform="translate(1067.097656 0)"/>
     <use xlink:href="#DejaVuSans-20" transform="translate(1102.302734 0)"/>
     <use xlink:href="#DejaVuSans-50" transform="translate(1134.089844 0)"/>
     <use xlink:href="#DejaVuSans-68" transform="translate(1194.392578 0)"/>
     <use xlink:href="#DejaVuSans-61" transform="translate(1257.771484 0)"/>
     <use xlink:href="#DejaVuSans-73" transform="translate(1319.050781 0)"/>
     <use xlink:href="#DejaVuSans-65" transform="translate(1371.150391 0)"/>
     <use xlink:href="#DejaVuSans-20" transform="translate(1432.673828 0)"/>
     <use xlink:href="#DejaVuSans-47" transform="translate(1464.460938 0)"/>
     <use xlink:href="#DejaVuSans-20" transform="translate(1541.951172 0)"/>
     <use xlink:href="#DejaVuSans-2014" transform="translate(1573.738281 0)"/>
     <use xlink:href="#DejaVuSans-20" transform="translate(1673.738281 0)"/>
     <use xlink:href="#DejaVuSans-6c" transform="translate(1705.525391 0)"/>
     <use xlink:href="#DejaVuSans-61" transform="translate(1733.308594 0)"/>
     <use xlink:href="#DejaVuSans-74" transform="translate(1794.587891 0)"/>
     <use xlink:href="#DejaVuSans-74" transform="translate(1833.796875 0)"/>
     <use xlink:href="#DejaVuSans-69" transform="translate(1873.005859 0)"/>
     <use xlink:href="#DejaVuSans-2e" transform="translate(1900.789062 0)"/>
     <use xlink:href="#DejaVuSans-2e" transform="translate(1932.576172 0)"/>
     <use xlink:href="#DejaVuSans-2e" transform="translate(1964.363281 0)"/>
    </g>
   </g>
   <g id="text_12">
    <!-- A1 + A2: Dirac-Kähler structural iden... -->
    <g style="fill: #222222" transform="translate(543.836364 210.762934) scale(0.07 -0.07)">
     <defs>
      <path id="DejaVuSans-2b" d="M 2944 4013 
L 2944 2272 
L 4684 2272 
L 4684 1741 
L 2944 1741 
L 2944 0 
L 2419 0 
L 2419 1741 
L 678 1741 
L 678 2272 
L 2419 2272 
L 2419 4013 
L 2944 4013 
z
" transform="scale(0.015625)"/>
      <path id="DejaVuSans-32" d="M 1228 531 
L 3431 531 
L 3431 0 
L 469 0 
L 469 531 
Q 828 903 1448 1529 
Q 2069 2156 2228 2338 
Q 2531 2678 2651 2914 
Q 2772 3150 2772 3378 
Q 2772 3750 2511 3984 
Q 2250 4219 1831 4219 
Q 1534 4219 1204 4116 
Q 875 4013 500 3803 
L 500 4441 
Q 881 4594 1212 4672 
Q 1544 4750 1819 4750 
Q 2544 4750 2975 4387 
Q 3406 4025 3406 3419 
Q 3406 3131 3298 2873 
Q 3191 2616 2906 2266 
Q 2828 2175 2409 1742 
Q 1991 1309 1228 531 
z
" transform="scale(0.015625)"/>
      <path id="DejaVuSans-4b" d="M 628 4666 
L 1259 4666 
L 1259 2694 
L 3353 4666 
L 4166 4666 
L 1850 2491 
L 4331 0 
L 3500 0 
L 1259 2247 
L 1259 0 
L 628 0 
L 628 4666 
z
" transform="scale(0.015625)"/>
      <path id="DejaVuSans-e4" d="M 2194 1759 
Q 1497 1759 1228 1600 
Q 959 1441 959 1056 
Q 959 750 1161 570 
Q 1363 391 1709 391 
Q 2188 391 2477 730 
Q 2766 1069 2766 1631 
L 2766 1759 
L 2194 1759 
z
M 3341 1997 
L 3341 0 
L 2766 0 
L 2766 531 
Q 2569 213 2275 61 
Q 1981 -91 1556 -91 
Q 1019 -91 701 211 
Q 384 513 384 1019 
Q 384 1609 779 1909 
Q 1175 2209 1959 2209 
L 2766 2209 
L 2766 2266 
Q 2766 2663 2505 2880 
Q 2244 3097 1772 3097 
Q 1472 3097 1187 3025 
Q 903 2953 641 2809 
L 641 3341 
Q 956 3463 1253 3523 
Q 1550 3584 1831 3584 
Q 2591 3584 2966 3190 
Q 3341 2797 3341 1997 
z
M 2150 4850 
L 2784 4850 
L 2784 4219 
L 2150 4219 
L 2150 4850 
z
M 928 4850 
L 1562 4850 
L 1562 4219 
L 928 4219 
L 928 4850 
z
" transform="scale(0.015625)"/>
     </defs>
     <use xlink:href="#DejaVuSans-41"/>
     <use xlink:href="#DejaVuSans-31" transform="translate(68.408203 0)"/>
     <use xlink:href="#DejaVuSans-20" transform="translate(132.03125 0)"/>
     <use xlink:href="#DejaVuSans-2b" transform="translate(163.818359 0)"/>
     <use xlink:href="#DejaVuSans-20" transform="translate(247.607422 0)"/>
     <use xlink:href="#DejaVuSans-41" transform="translate(279.394531 0)"/>
     <use xlink:href="#DejaVuSans-32" transform="translate(347.802734 0)"/>
     <use xlink:href="#DejaVuSans-3a" transform="translate(411.425781 0)"/>
     <use xlink:href="#DejaVuSans-20" transform="translate(445.117188 0)"/>
     <use xlink:href="#DejaVuSans-44" transform="translate(476.904297 0)"/>
     <use xlink:href="#DejaVuSans-69" transform="translate(553.90625 0)"/>
     <use xlink:href="#DejaVuSans-72" transform="translate(581.689453 0)"/>
     <use xlink:href="#DejaVuSans-61" transform="translate(622.802734 0)"/>
     <use xlink:href="#DejaVuSans-63" transform="translate(684.082031 0)"/>
     <use xlink:href="#DejaVuSans-2d" transform="translate(739.0625 0)"/>
     <use xlink:href="#DejaVuSans-4b" transform="translate(775.146484 0)"/>
     <use xlink:href="#DejaVuSans-e4" transform="translate(838.972656 0)"/>
     <use xlink:href="#DejaVuSans-68" transform="translate(900.251953 0)"/>
     <use xlink:href="#DejaVuSans-6c" transform="translate(963.630859 0)"/>
     <use xlink:href="#DejaVuSans-65" transform="translate(991.414062 0)"/>
     <use xlink:href="#DejaVuSans-72" transform="translate(1052.9375 0)"/>
     <use xlink:href="#DejaVuSans-20" transform="translate(1094.050781 0)"/>
     <use xlink:href="#DejaVuSans-73" transform="translate(1125.837891 0)"/>
     <use xlink:href="#DejaVuSans-74" transform="translate(1177.9375 0)"/>
     <use xlink:href="#DejaVuSans-72" transform="translate(1217.146484 0)"/>
     <use xlink:href="#DejaVuSans-75" transform="translate(1258.259766 0)"/>
     <use xlink:href="#DejaVuSans-63" transform="translate(1321.638672 0)"/>
     <use xlink:href="#DejaVuSans-74" transform="translate(1376.619141 0)"/>
     <use xlink:href="#DejaVuSans-75" transform="translate(1415.828125 0)"/>
     <use xlink:href="#DejaVuSans-72" transform="translate(1479.207031 0)"/>
     <use xlink:href="#DejaVuSans-61" transform="translate(1520.320312 0)"/>
     <use xlink:href="#DejaVuSans-6c" transform="translate(1581.599609 0)"/>
     <use xlink:href="#DejaVuSans-20" transform="translate(1609.382812 0)"/>
     <use xlink:href="#DejaVuSans-69" transform="translate(1641.169922 0)"/>
     <use xlink:href="#DejaVuSans-64" transform="translate(1668.953125 0)"/>
     <use xlink:href="#DejaVuSans-65" transform="translate(1732.429688 0)"/>
     <use xlink:href="#DejaVuSans-6e" transform="translate(1793.953125 0)"/>
     <use xlink:href="#DejaVuSans-2e" transform="translate(1857.332031 0)"/>
     <use xlink:href="#DejaVuSans-2e" transform="translate(1889.119141 0)"/>
     <use xlink:href="#DejaVuSans-2e" transform="translate(1920.90625 0)"/>
    </g>
   </g>
   <g id="text_13">
    <!-- Path 1: Cl(3,0) multi-grade decomposi... -->
    <g style="fill: #222222" transform="translate(502.209278 210.762934) scale(0.07 -0.07)">
     <defs>
      <path id="DejaVuSans-2c" d="M 750 794 
L 1409 794 
L 1409 256 
L 897 -744 
L 494 -744 
L 750 256 
L 750 794 
z
" transform="scale(0.015625)"/>
      <path id="DejaVuSans-30" d="M 2034 4250 
Q 1547 4250 1301 3770 
Q 1056 3291 1056 2328 
Q 1056 1369 1301 889 
Q 1547 409 2034 409 
Q 2525 409 2770 889 
Q 3016 1369 3016 2328 
Q 3016 3291 2770 3770 
Q 2525 4250 2034 4250 
z
M 2034 4750 
Q 2819 4750 3233 4129 
Q 3647 3509 3647 2328 
Q 3647 1150 3233 529 
Q 2819 -91 2034 -91 
Q 1250 -91 836 529 
Q 422 1150 422 2328 
Q 422 3509 836 4129 
Q 1250 4750 2034 4750 
z
" transform="scale(0.015625)"/>
     </defs>
     <use xlink:href="#DejaVuSans-50"/>
     <use xlink:href="#DejaVuSans-61" transform="translate(55.802734 0)"/>
     <use xlink:href="#DejaVuSans-74" transform="translate(117.082031 0)"/>
     <use xlink:href="#DejaVuSans-68" transform="translate(156.291016 0)"/>
     <use xlink:href="#DejaVuSans-20" transform="translate(219.669922 0)"/>
     <use xlink:href="#DejaVuSans-31" transform="translate(251.457031 0)"/>
     <use xlink:href="#DejaVuSans-3a" transform="translate(315.080078 0)"/>
     <use xlink:href="#DejaVuSans-20" transform="translate(348.771484 0)"/>
     <use xlink:href="#DejaVuSans-43" transform="translate(380.558594 0)"/>
     <use xlink:href="#DejaVuSans-6c" transform="translate(450.382812 0)"/>
     <use xlink:href="#DejaVuSans-28" transform="translate(478.166016 0)"/>
     <use xlink:href="#DejaVuSans-33" transform="translate(517.179688 0)"/>
     <use xlink:href="#DejaVuSans-2c" transform="translate(580.802734 0)"/>
     <use xlink:href="#DejaVuSans-30" transform="translate(612.589844 0)"/>
     <use xlink:href="#DejaVuSans-29" transform="translate(676.212891 0)"/>
     <use xlink:href="#DejaVuSans-20" transform="translate(715.226562 0)"/>
     <use xlink:href="#DejaVuSans-6d" transform="translate(747.013672 0)"/>
     <use xlink:href="#DejaVuSans-75" transform="translate(844.425781 0)"/>
     <use xlink:href="#DejaVuSans-6c" transform="translate(907.804688 0)"/>
     <use xlink:href="#DejaVuSans-74" transform="translate(935.587891 0)"/>
     <use xlink:href="#DejaVuSans-69" transform="translate(974.796875 0)"/>
     <use xlink:href="#DejaVuSans-2d" transform="translate(1002.580078 0)"/>
     <use xlink:href="#DejaVuSans-67" transform="translate(1038.664062 0)"/>
     <use xlink:href="#DejaVuSans-72" transform="translate(1102.140625 0)"/>
     <use xlink:href="#DejaVuSans-61" transform="translate(1143.253906 0)"/>
     <use xlink:href="#DejaVuSans-64" transform="translate(1204.533203 0)"/>
     <use xlink:href="#DejaVuSans-65" transform="translate(1268.009766 0)"/>
     <use xlink:href="#DejaVuSans-20" transform="translate(1329.533203 0)"/>
     <use xlink:href="#DejaVuSans-64" transform="translate(1361.320312 0)"/>
     <use xlink:href="#DejaVuSans-65" transform="translate(1424.796875 0)"/>
     <use xlink:href="#DejaVuSans-63" transform="translate(1486.320312 0)"/>
     <use xlink:href="#DejaVuSans-6f" transform="translate(1541.300781 0)"/>
     <use xlink:href="#DejaVuSans-6d" transform="translate(1602.482422 0)"/>
     <use xlink:href="#DejaVuSans-70" transform="translate(1699.894531 0)"/>
     <use xlink:href="#DejaVuSans-6f" transform="translate(1763.371094 0)"/>
     <use xlink:href="#DejaVuSans-73" transform="translate(1824.552734 0)"/>
     <use xlink:href="#DejaVuSans-69" transform="translate(1876.652344 0)"/>
     <use xlink:href="#DejaVuSans-2e" transform="translate(1904.435547 0)"/>
     <use xlink:href="#DejaVuSans-2e" transform="translate(1936.222656 0)"/>
     <use xlink:href="#DejaVuSans-2e" transform="translate(1968.009766 0)"/>
    </g>
   </g>
   <g id="text_14">
    <!-- Program F-double-prime: bivector clos... -->
    <g style="fill: #222222" transform="translate(490.664128 210.762934) scale(0.07 -0.07)">
     <use xlink:href="#DejaVuSans-50"/>
     <use xlink:href="#DejaVuSans-72" transform="translate(58.552734 0)"/>
     <use xlink:href="#DejaVuSans-6f" transform="translate(97.416016 0)"/>
     <use xlink:href="#DejaVuSans-67" transform="translate(158.597656 0)"/>
     <use xlink:href="#DejaVuSans-72" transform="translate(222.074219 0)"/>
     <use xlink:href="#DejaVuSans-61" transform="translate(263.1875 0)"/>
     <use xlink:href="#DejaVuSans-6d" transform="translate(324.466797 0)"/>
     <use xlink:href="#DejaVuSans-20" transform="translate(421.878906 0)"/>
     <use xlink:href="#DejaVuSans-46" transform="translate(453.666016 0)"/>
     <use xlink:href="#DejaVuSans-2d" transform="translate(511.185547 0)"/>
     <use xlink:href="#DejaVuSans-64" transform="translate(547.269531 0)"/>
     <use xlink:href="#DejaVuSans-6f" transform="translate(610.746094 0)"/>
     <use xlink:href="#DejaVuSans-75" transform="translate(671.927734 0)"/>
     <use xlink:href="#DejaVuSans-62" transform="translate(735.306641 0)"/>
     <use xlink:href="#DejaVuSans-6c" transform="translate(798.783203 0)"/>
     <use xlink:href="#DejaVuSans-65" transform="translate(826.566406 0)"/>
     <use xlink:href="#DejaVuSans-2d" transform="translate(888.089844 0)"/>
     <use xlink:href="#DejaVuSans-70" transform="translate(924.173828 0)"/>
     <use xlink:href="#DejaVuSans-72" transform="translate(987.650391 0)"/>
     <use xlink:href="#DejaVuSans-69" transform="translate(1028.763672 0)"/>
     <use xlink:href="#DejaVuSans-6d" transform="translate(1056.546875 0)"/>
     <use xlink:href="#DejaVuSans-65" transform="translate(1153.958984 0)"/>
     <use xlink:href="#DejaVuSans-3a" transform="translate(1215.482422 0)"/>
     <use xlink:href="#DejaVuSans-20" transform="translate(1249.173828 0)"/>
     <use xlink:href="#DejaVuSans-62" transform="translate(1280.960938 0)"/>
     <use xlink:href="#DejaVuSans-69" transform="translate(1344.4375 0)"/>
     <use xlink:href="#DejaVuSans-76" transform="translate(1372.220703 0)"/>
     <use xlink:href="#DejaVuSans-65" transform="translate(1431.400391 0)"/>
     <use xlink:href="#DejaVuSans-63" transform="translate(1492.923828 0)"/>
     <use xlink:href="#DejaVuSans-74" transform="translate(1547.904297 0)"/>
     <use xlink:href="#DejaVuSans-6f" transform="translate(1587.113281 0)"/>
     <use xlink:href="#DejaVuSans-72" transform="translate(1648.294922 0)"/>
     <use xlink:href="#DejaVuSans-20" transform="translate(1689.408203 0)"/>
     <use xlink:href="#DejaVuSans-63" transform="translate(1721.195312 0)"/>
     <use xlink:href="#DejaVuSans-6c" transform="translate(1776.175781 0)"/>
     <use xlink:href="#DejaVuSans-6f" transform="translate(1803.958984 0)"/>
     <use xlink:href="#DejaVuSans-73" transform="translate(1865.140625 0)"/>
     <use xlink:href="#DejaVuSans-2e" transform="translate(1917.240234 0)"/>
     <use xlink:href="#DejaVuSans-2e" transform="translate(1949.027344 0)"/>
     <use xlink:href="#DejaVuSans-2e" transform="translate(1980.814453 0)"/>
    </g>
   </g>
   <g id="text_15">
    <!-- Program F-prime: plaquette bivector e... -->
    <g style="fill: #222222" transform="translate(443.930764 210.731391) scale(0.07 -0.07)">
     <defs>
      <path id="DejaVuSans-71" d="M 947 1747 
Q 947 1113 1208 752 
Q 1469 391 1925 391 
Q 2381 391 2643 752 
Q 2906 1113 2906 1747 
Q 2906 2381 2643 2742 
Q 2381 3103 1925 3103 
Q 1469 3103 1208 2742 
Q 947 2381 947 1747 
z
M 2906 525 
Q 2725 213 2448 61 
Q 2172 -91 1784 -91 
Q 1150 -91 751 415 
Q 353 922 353 1747 
Q 353 2572 751 3078 
Q 1150 3584 1784 3584 
Q 2172 3584 2448 3432 
Q 2725 3281 2906 2969 
L 2906 3500 
L 3481 3500 
L 3481 -1331 
L 2906 -1331 
L 2906 525 
z
" transform="scale(0.015625)"/>
     </defs>
     <use xlink:href="#DejaVuSans-50"/>
     <use xlink:href="#DejaVuSans-72" transform="translate(58.552734 0)"/>
     <use xlink:href="#DejaVuSans-6f" transform="translate(97.416016 0)"/>
     <use xlink:href="#DejaVuSans-67" transform="translate(158.597656 0)"/>
     <use xlink:href="#DejaVuSans-72" transform="translate(222.074219 0)"/>
     <use xlink:href="#DejaVuSans-61" transform="translate(263.1875 0)"/>
     <use xlink:href="#DejaVuSans-6d" transform="translate(324.466797 0)"/>
     <use xlink:href="#DejaVuSans-20" transform="translate(421.878906 0)"/>
     <use xlink:href="#DejaVuSans-46" transform="translate(453.666016 0)"/>
     <use xlink:href="#DejaVuSans-2d" transform="translate(511.185547 0)"/>
     <use xlink:href="#DejaVuSans-70" transform="translate(547.269531 0)"/>
     <use xlink:href="#DejaVuSans-72" transform="translate(610.746094 0)"/>
     <use xlink:href="#DejaVuSans-69" transform="translate(651.859375 0)"/>
     <use xlink:href="#DejaVuSans-6d" transform="translate(679.642578 0)"/>
     <use xlink:href="#DejaVuSans-65" transform="translate(777.054688 0)"/>
     <use xlink:href="#DejaVuSans-3a" transform="translate(838.578125 0)"/>
     <use xlink:href="#DejaVuSans-20" transform="translate(872.269531 0)"/>
     <use xlink:href="#DejaVuSans-70" transform="translate(904.056641 0)"/>
     <use xlink:href="#DejaVuSans-6c" transform="translate(967.533203 0)"/>
     <use xlink:href="#DejaVuSans-61" transform="translate(995.316406 0)"/>
     <use xlink:href="#DejaVuSans-71" transform="translate(1056.595703 0)"/>
     <use xlink:href="#DejaVuSans-75" transform="translate(1120.072266 0)"/>
     <use xlink:href="#DejaVuSans-65" transform="translate(1183.451172 0)"/>
     <use xlink:href="#DejaVuSans-74" transform="translate(1244.974609 0)"/>
     <use xlink:href="#DejaVuSans-74" transform="translate(1284.183594 0)"/>
     <use xlink:href="#DejaVuSans-65" transform="translate(1323.392578 0)"/>
     <use xlink:href="#DejaVuSans-20" transform="translate(1384.916016 0)"/>
     <use xlink:href="#DejaVuSans-62" transform="translate(1416.703125 0)"/>
     <use xlink:href="#DejaVuSans-69" transform="translate(1480.179688 0)"/>
     <use xlink:href="#DejaVuSans-76" transform="translate(1507.962891 0)"/>
     <use xlink:href="#DejaVuSans-65" transform="translate(1567.142578 0)"/>
     <use xlink:href="#DejaVuSans-63" transform="translate(1628.666016 0)"/>
     <use xlink:href="#DejaVuSans-74" transform="translate(1683.646484 0)"/>
     <use xlink:href="#DejaVuSans-6f" transform="translate(1722.855469 0)"/>
     <use xlink:href="#DejaVuSans-72" transform="translate(1784.037109 0)"/>
     <use xlink:href="#DejaVuSans-20" transform="translate(1825.150391 0)"/>
     <use xlink:href="#DejaVuSans-65" transform="translate(1856.9375 0)"/>
     <use xlink:href="#DejaVuSans-2e" transform="translate(1918.460938 0)"/>
     <use xlink:href="#DejaVuSans-2e" transform="translate(1950.248047 0)"/>
     <use xlink:href="#DejaVuSans-2e" transform="translate(1982.035156 0)"/>
    </g>
   </g>
   <g id="text_16">
    <!-- Program F: link-bilinear fermion prob... -->
    <g style="fill: #222222" transform="translate(515.39086 210.762934) scale(0.07 -0.07)">
     <defs>
      <path id="DejaVuSans-6b" d="M 581 4863 
L 1159 4863 
L 1159 1991 
L 2875 3500 
L 3609 3500 
L 1753 1863 
L 3688 0 
L 2938 0 
L 1159 1709 
L 1159 0 
L 581 0 
L 581 4863 
z
" transform="scale(0.015625)"/>
     </defs>
     <use xlink:href="#DejaVuSans-50"/>
     <use xlink:href="#DejaVuSans-72" transform="translate(58.552734 0)"/>
     <use xlink:href="#DejaVuSans-6f" transform="translate(97.416016 0)"/>
     <use xlink:href="#DejaVuSans-67" transform="translate(158.597656 0)"/>
     <use xlink:href="#DejaVuSans-72" transform="translate(222.074219 0)"/>
     <use xlink:href="#DejaVuSans-61" transform="translate(263.1875 0)"/>
     <use xlink:href="#DejaVuSans-6d" transform="translate(324.466797 0)"/>
     <use xlink:href="#DejaVuSans-20" transform="translate(421.878906 0)"/>
     <use xlink:href="#DejaVuSans-46" transform="translate(453.666016 0)"/>
     <use xlink:href="#DejaVuSans-3a" transform="translate(503.435547 0)"/>
     <use xlink:href="#DejaVuSans-20" transform="translate(537.126953 0)"/>
     <use xlink:href="#DejaVuSans-6c" transform="translate(568.914062 0)"/>
     <use xlink:href="#DejaVuSans-69" transform="translate(596.697266 0)"/>
     <use xlink:href="#DejaVuSans-6e" transform="translate(624.480469 0)"/>
     <use xlink:href="#DejaVuSans-6b" transform="translate(687.859375 0)"/>
     <use xlink:href="#DejaVuSans-2d" transform="translate(745.769531 0)"/>
     <use xlink:href="#DejaVuSans-62" transform="translate(781.853516 0)"/>
     <use xlink:href="#DejaVuSans-69" transform="translate(845.330078 0)"/>
     <use xlink:href="#DejaVuSans-6c" transform="translate(873.113281 0)"/>
     <use xlink:href="#DejaVuSans-69" transform="translate(900.896484 0)"/>
     <use xlink:href="#DejaVuSans-6e" transform="translate(928.679688 0)"/>
     <use xlink:href="#DejaVuSans-65" transform="translate(992.058594 0)"/>
     <use xlink:href="#DejaVuSans-61" transform="translate(1053.582031 0)"/>
     <use xlink:href="#DejaVuSans-72" transform="translate(1114.861328 0)"/>
     <use xlink:href="#DejaVuSans-20" transform="translate(1155.974609 0)"/>
     <use xlink:href="#DejaVuSans-66" transform="translate(1187.761719 0)"/>
     <use xlink:href="#DejaVuSans-65" transform="translate(1222.966797 0)"/>
     <use xlink:href="#DejaVuSans-72" transform="translate(1284.490234 0)"/>
     <use xlink:href="#DejaVuSans-6d" transform="translate(1323.853516 0)"/>
     <use xlink:href="#DejaVuSans-69" transform="translate(1421.265625 0)"/>
     <use xlink:href="#DejaVuSans-6f" transform="translate(1449.048828 0)"/>
     <use xlink:href="#DejaVuSans-6e" transform="translate(1510.230469 0)"/>
     <use xlink:href="#DejaVuSans-20" transform="translate(1573.609375 0)"/>
     <use xlink:href="#DejaVuSans-70" transform="translate(1605.396484 0)"/>
     <use xlink:href="#DejaVuSans-72" transform="translate(1668.873047 0)"/>
     <use xlink:href="#DejaVuSans-6f" transform="translate(1707.736328 0)"/>
     <use xlink:href="#DejaVuSans-62" transform="translate(1768.917969 0)"/>
     <use xlink:href="#DejaVuSans-2e" transform="translate(1832.394531 0)"/>
     <use xlink:href="#DejaVuSans-2e" transform="translate(1864.181641 0)"/>
     <use xlink:href="#DejaVuSans-2e" transform="translate(1895.96875 0)"/>
    </g>
   </g>
   <g id="text_17">
    <!-- Newton's law of gravity derived from ... -->
    <g style="fill: #222222" transform="translate(534.348888 43.9227) scale(0.07 -0.07)">
     <defs>
      <path id="DejaVuSans-4e" d="M 628 4666 
L 1478 4666 
L 3547 763 
L 3547 4666 
L 4159 4666 
L 4159 0 
L 3309 0 
L 1241 3903 
L 1241 0 
L 628 0 
L 628 4666 
z
" transform="scale(0.015625)"/>
      <path id="DejaVuSans-27" d="M 1147 4666 
L 1147 2931 
L 616 2931 
L 616 4666 
L 1147 4666 
z
" transform="scale(0.015625)"/>
     </defs>
     <use xlink:href="#DejaVuSans-4e"/>
     <use xlink:href="#DejaVuSans-65" transform="translate(74.804688 0)"/>
     <use xlink:href="#DejaVuSans-77" transform="translate(136.328125 0)"/>
     <use xlink:href="#DejaVuSans-74" transform="translate(218.115234 0)"/>
     <use xlink:href="#DejaVuSans-6f" transform="translate(257.324219 0)"/>
     <use xlink:href="#DejaVuSans-6e" transform="translate(318.505859 0)"/>
     <use xlink:href="#DejaVuSans-27" transform="translate(381.884766 0)"/>
     <use xlink:href="#DejaVuSans-73" transform="translate(409.375 0)"/>
     <use xlink:href="#DejaVuSans-20" transform="translate(461.474609 0)"/>
     <use xlink:href="#DejaVuSans-6c" transform="translate(493.261719 0)"/>
     <use xlink:href="#DejaVuSans-61" transform="translate(521.044922 0)"/>
     <use xlink:href="#DejaVuSans-77" transform="translate(582.324219 0)"/>
     <use xlink:href="#DejaVuSans-20" transform="translate(664.111328 0)"/>
     <use xlink:href="#DejaVuSans-6f" transform="translate(695.898438 0)"/>
     <use xlink:href="#DejaVuSans-66" transform="translate(757.080078 0)"/>
     <use xlink:href="#DejaVuSans-20" transform="translate(792.285156 0)"/>
     <use xlink:href="#DejaVuSans-67" transform="translate(824.072266 0)"/>
     <use xlink:href="#DejaVuSans-72" transform="translate(887.548828 0)"/>
     <use xlink:href="#DejaVuSans-61" transform="translate(928.662109 0)"/>
     <use xlink:href="#DejaVuSans-76" transform="translate(989.941406 0)"/>
     <use xlink:href="#DejaVuSans-69" transform="translate(1049.121094 0)"/>
     <use xlink:href="#DejaVuSans-74" transform="translate(1076.904297 0)"/>
     <use xlink:href="#DejaVuSans-79" transform="translate(1116.113281 0)"/>
     <use xlink:href="#DejaVuSans-20" transform="translate(1175.292969 0)"/>
     <use xlink:href="#DejaVuSans-64" transform="translate(1207.080078 0)"/>
     <use xlink:href="#DejaVuSans-65" transform="translate(1270.556641 0)"/>
     <use xlink:href="#DejaVuSans-72" transform="translate(1332.080078 0)"/>
     <use xlink:href="#DejaVuSans-69" transform="translate(1373.193359 0)"/>
     <use xlink:href="#DejaVuSans-76" transform="translate(1400.976562 0)"/>
     <use xlink:href="#DejaVuSans-65" transform="translate(1460.15625 0)"/>
     <use xlink:href="#DejaVuSans-64" transform="translate(1521.679688 0)"/>
     <use xlink:href="#DejaVuSans-20" transform="translate(1585.15625 0)"/>
     <use xlink:href="#DejaVuSans-66" transform="translate(1616.943359 0)"/>
     <use xlink:href="#DejaVuSans-72" transform="translate(1652.148438 0)"/>
     <use xlink:href="#DejaVuSans-6f" transform="translate(1691.011719 0)"/>
     <use xlink:href="#DejaVuSans-6d" transform="translate(1752.193359 0)"/>
     <use xlink:href="#DejaVuSans-20" transform="translate(1849.605469 0)"/>
     <use xlink:href="#DejaVuSans-2e" transform="translate(1881.392578 0)"/>
     <use xlink:href="#DejaVuSans-2e" transform="translate(1913.179688 0)"/>
     <use xlink:href="#DejaVuSans-2e" transform="translate(1944.966797 0)"/>
    </g>
   </g>
   <g id="legend_1">
    <g id="patch_7">
     <path d="M 508.48625 40.460625 
L 559.6 40.460625 
Q 561.2 40.460625 561.2 38.860625 
L 561.2 27.918125 
Q 561.2 26.318125 559.6 26.318125 
L 508.48625 26.318125 
Q 506.88625 26.318125 506.88625 27.918125 
L 506.88625 38.860625 
Q 506.88625 40.460625 508.48625 40.460625 
z
" style="fill: #ffffff; opacity: 0.7; stroke: #cccccc; stroke-linejoin: miter"/>
    </g>
    <g id="PathCollection_2">
     <path d="M 518.08625 37.369858 
C 519.113377 37.369858 520.098574 36.961776 520.824863 36.235488 
C 521.551151 35.509199 521.959233 34.524002 521.959233 33.496875 
C 521.959233 32.469748 521.551151 31.484551 520.824863 30.758262 
C 520.098574 30.031974 519.113377 29.623892 518.08625 29.623892 
C 517.059123 29.623892 516.073926 30.031974 515.347637 30.758262 
C 514.621349 31.484551 514.213267 32.469748 514.213267 33.496875 
C 514.213267 34.524002 514.621349 35.509199 515.347637 36.235488 
C 516.073926 36.961776 517.059123 37.369858 518.08625 37.369858 
z
" style="fill: #2e7d32; stroke: #222222; stroke-width: 0.5"/>
    </g>
    <g id="text_18">
     <!-- ledger -->
     <g transform="translate(532.48625 35.596875) scale(0.08 -0.08)">
      <use xlink:href="#DejaVuSans-6c"/>
      <use xlink:href="#DejaVuSans-65" transform="translate(27.783203 0)"/>
      <use xlink:href="#DejaVuSans-64" transform="translate(89.306641 0)"/>
      <use xlink:href="#DejaVuSans-67" transform="translate(152.783203 0)"/>
      <use xlink:href="#DejaVuSans-65" transform="translate(216.259766 0)"/>
      <use xlink:href="#DejaVuSans-72" transform="translate(277.783203 0)"/>
     </g>
    </g>
   </g>
  </g>
 </g>
 <defs>
  <clipPath id="p33cc9ae202">
   <rect x="7.2" y="22.318125" width="558" height="201.608848"/>
  </clipPath>
 </defs>
</svg>
